<svg width="268" height="144" viewBox="0 0 268 144" fill="none" xmlns="http://www.w3.org/2000/svg">
<path d="M58.1616 34.2354H78.4888V40.3688H65.2034V44.6647H77.2194V50.4734H65.2034V59.4968H58.1616V34.2354Z" fill="#FFF9ED"/>
<path d="M81.8298 48.4179V34.2354H88.946V48.2741C88.946 51.9204 90.7985 53.6511 93.6267 53.6511C96.455 53.6511 98.3447 51.9903 98.3447 48.4549V34.2354H105.461V48.2371C105.461 56.356 100.78 59.9654 93.5564 59.9654C86.3328 59.9654 81.834 56.319 81.834 48.4179H81.8298Z" fill="#FFF9ED"/>
<path d="M110.034 34.2354H116.604L127.057 47.5875V34.2354H134.025V59.4968H127.893L117.006 45.639V59.4968H110.038V34.2354H110.034Z" fill="#FFF9ED"/>
<path d="M138.925 34.2354H148.762C157.801 34.2354 163.064 39.4316 163.064 46.7201V46.7941C163.064 54.0827 157.73 59.4968 148.617 59.4968H138.925V34.2354ZM145.966 40.4058V53.2893H148.832C153.078 53.2893 155.874 50.979 155.874 46.901V46.827C155.874 42.786 153.078 40.4058 148.832 40.4058H145.966Z" fill="#FFF9ED"/>
<path d="M174.1 34.0545H180.89L191.707 59.4968H184.156L182.341 54.9501H172.504L170.689 59.4968H163.321L174.1 34.0545ZM180.27 49.4991L177.437 42.3544L174.568 49.4991H180.27Z" fill="#FFF9ED"/>
<path d="M192.104 46.938V46.864C192.104 39.5014 197.764 33.7298 205.46 33.7298C210.649 33.7298 213.99 35.8962 216.239 38.9629L210.938 43.0409C209.487 41.2732 207.816 40.0811 205.385 40.0811C201.829 40.0811 199.323 43.1108 199.323 46.7941V46.864C199.323 50.6543 201.829 53.6141 205.385 53.6141C208.036 53.6141 209.594 52.389 211.12 50.5474L216.421 54.3006C214.027 57.5852 210.794 60.0024 205.207 60.0024C197.946 60.0024 192.104 54.4815 192.104 46.938Z" fill="#FFF9ED"/>
<path d="M217.583 55.6736L222.119 51.4148C223.351 52.8947 224.513 53.7621 226.113 53.7621C227.854 53.7621 228.979 52.5699 228.979 50.2267V34.2395H235.983V50.2637C235.983 53.4373 235.185 55.6777 233.478 57.3714C231.807 59.0322 229.413 59.9325 226.51 59.9325C222.082 59.9325 219.394 58.0908 217.583 55.6736Z" fill="#FFF9ED"/>
<path d="M248.438 34.0545H255.227L266.044 59.4968H258.494L256.679 54.9501H246.842L245.026 59.4968H237.658L248.438 34.0545ZM254.607 49.4991L251.775 42.3544L248.905 49.4991H254.607Z" fill="#FFF9ED"/>
<path d="M58.1203 67.4842H71.1494C74.3457 67.4842 76.5951 68.2776 78.0836 69.7205C79.1008 70.7688 79.7169 72.1007 79.7169 73.8355V73.9095C79.7169 76.8323 78.0464 78.563 75.797 79.5373C78.8817 80.5486 80.8416 82.2793 80.8416 85.7077V85.7817C80.8416 90.1105 77.2856 92.7456 71.2238 92.7456H58.1203V67.4842ZM72.7827 75.2784C72.7827 73.8725 71.658 73.112 69.5864 73.112H64.976V77.5517H69.4044C71.5463 77.5517 72.7785 76.8282 72.7785 75.3524V75.2784H72.7827ZM70.3513 82.4601H64.9801V87.1136H70.4258C72.6049 87.1136 73.7999 86.2832 73.7999 84.8033V84.7293C73.7999 83.3563 72.7124 82.456 70.3513 82.456V82.4601Z" fill="#FFF9ED"/>
<path d="M84.654 67.4842H91.6957V92.7456H84.654V67.4842Z" fill="#FFF9ED"/>
<path d="M105.527 67.3033H112.317L123.133 92.7456H115.583L113.768 88.1989H103.931L102.116 92.7456H94.7473L105.527 67.3033ZM111.696 82.7479L108.864 75.6032L105.998 82.7479H111.696Z" fill="#FFF9ED"/>
<path d="M134.637 81.6297V86.608H146.979V92.7414H127.632V84.6225L124.874 85.7776V79.5003L127.632 78.3451V67.4842H134.637V75.3524L140.008 73.0791V79.3235L134.637 81.6338V81.6297Z" fill="#FFF9ED"/>
<path d="M153.078 83.2864L143.386 67.4801H151.408L156.634 76.6802L161.898 67.4801H169.775L160.12 83.1795V92.7414H153.078V83.2864Z" fill="#FFF9ED"/>
<path d="M182.804 67.4842H189.846V86.6121H202.152V92.7456H182.804V67.4842Z" fill="#FFF9ED"/>
<path d="M205.6 67.4842H226.035V73.4039H212.567V77.264H224.765V82.7849H212.567V86.7889H226.217V92.7414H205.6V67.4801V67.4842Z" fill="#FFF9ED"/>
<path d="M228.541 67.4842H235.983L240.412 82.0984L245.312 67.4102H251.374L256.273 82.0984L260.702 67.4842H267.996L259.503 92.9264H253.371L248.289 78.3821L243.17 92.9264H237.038L228.545 67.4842H228.541Z" fill="#FFF9ED"/>
<path d="M20.2445 80.158C21.9067 78.7727 23.846 77.4407 24.6068 75.4511C25.0079 74.0698 24.8839 72.6022 24.9624 71.1264C25.0203 70.2755 25.1154 69.3546 25.7439 68.6435C26.3063 68.0474 26.9513 67.5664 27.6708 67.1882C28.3531 66.8552 29.3289 66.5223 29.9864 67.0484C29.2379 66.8347 28.5805 67.3033 28.0306 67.7432C27.4723 68.1995 26.9803 68.7462 26.5668 69.3135C26.2815 69.737 26.2401 70.4358 26.2484 71.1593C26.2608 72.6927 26.3766 74.3247 25.8225 75.8498C24.8053 78.1478 22.4898 79.3729 20.2445 80.1498V80.158Z" fill="#FFF9ED"/>
<path d="M32.8229 39.448C32.2523 41.0636 31.1731 42.4736 29.9491 43.6617C29.1759 44.4715 28.5929 45.4458 28.0057 46.4406C25.6736 50.5844 23.6186 54.9049 21.0384 58.9253C21.6173 57.0919 22.3657 55.3119 23.1059 53.5648C24.6482 50.0047 26.0623 46.4365 28.5474 43.3328C29.9243 41.968 31.4667 40.8745 32.8188 39.448H32.8229Z" fill="#FFF9ED"/>
<path d="M9.94859 105.859C9.5351 105.81 9.12988 105.699 8.77014 105.526C7.59583 104.975 7.44697 103.664 7.21955 102.497C7.06656 101.691 6.95492 100.86 6.73163 100.038C6.55797 99.2243 6.11553 98.4884 5.84263 97.7033C5.0818 95.2409 4.40368 91.6849 3.79998 88.9265C4.06875 89.128 4.34165 89.3212 4.60629 89.5103C5.79714 90.3571 7.67026 92.836 8.46416 93.8514C9.25806 94.8668 11.5819 100.441 11.5819 100.441C11.5819 100.441 10.8459 96.8934 10.6763 94.7517C10.5068 92.6099 12.3179 91.3725 13.6204 90.3037C14.9229 89.2349 18.5492 87.6275 19.1157 85.0582C19.5788 82.9493 17.6974 83.3029 16.9076 84.162C16.031 85.1199 15.3198 86.0243 14.2448 86.3614C13.1697 86.6984 12.4874 85.7982 11.6398 85.346C10.788 84.8938 9.79973 84.8116 8.12923 85.0541C6.61585 85.2761 6.26025 86.4148 4.50292 86.8094C2.74558 87.2041 1.07508 84.8856 0.818712 85.2884C0.533403 85.7406 0.876601 86.386 1.38106 86.9204C1.89792 87.4631 2.77452 88.166 3.67593 88.8361C3.9447 91.8987 4.34165 94.9531 5.20999 97.9129C5.45394 98.7022 5.91706 99.3928 6.10313 100.211C6.71096 101.942 6.59518 105.086 8.69158 105.732C9.10507 105.863 9.5351 105.909 9.95273 105.867L9.94859 105.859Z" fill="#FFF9ED"/>
<path d="M35.8827 114.089C32.2234 116.116 28.0884 116.786 23.999 117.546C20.0833 118.225 15.5762 119.631 12.3551 116.597C11.8713 116.186 11.3875 115.721 10.9203 115.277L10.6763 115.022L10.4613 114.739C8.96035 112.215 9.64261 108.679 10.3414 105.859C10.3993 105.859 10.4531 105.826 10.5027 105.732C10.8417 105.058 13.1077 103.59 13.4467 103.705C13.7858 103.82 17.7512 106.632 21.944 107.31C26.1368 107.985 32.9346 108.211 37.239 106.459C41.5434 104.708 44.2642 103.031 44.2642 103.031C44.2642 103.031 39.6207 104.721 37.1273 105.395C34.634 106.069 31.0077 106.632 24.2099 106.41C17.4121 106.184 12.0863 101.004 12.0863 101.004C12.0863 101.004 11.5199 101.905 10.4985 103.146C9.66742 104.153 9.96513 105.687 10.2877 105.855C9.22912 108.86 8.12923 113.263 10.3828 115.812C11.6026 117.094 12.8182 118.422 14.5631 119.051C17.7057 120.145 21.117 119.261 24.2223 118.792C27.3483 118.258 30.5694 117.76 33.5755 116.626C35.5892 115.857 37.483 114.772 39.2403 113.559C41.8701 111.779 44.3882 109.851 46.7451 107.717C43.1147 109.703 39.4884 112.087 35.8827 114.093V114.089Z" fill="#FFF9ED"/>
<path d="M34.0427 62.7978C34.0303 62.769 34.0179 62.7402 34.0138 62.7073C34.0138 62.6991 34.0055 62.6621 34.0055 62.6621C34.0096 62.6621 34.0096 62.7238 34.0055 62.6704C34.0055 62.6416 34.0055 62.6128 34.0055 62.584C34.0055 62.5676 34.0055 62.5511 34.0055 62.5347C34.0055 62.5552 34.0055 62.5964 34.0055 62.5347C34.0096 62.5059 34.0179 62.4771 34.0303 62.4525C34.0468 62.4031 34.022 62.4525 34.0303 62.4566C34.0303 62.4566 34.0468 62.4196 34.051 62.4155C34.0675 62.3867 34.0882 62.362 34.1006 62.3333L34.0841 62.3579C34.0841 62.3579 34.0965 62.3415 34.1047 62.3333C34.1171 62.3209 34.1254 62.3086 34.1378 62.3004L33.8442 62.3374C33.7657 62.2839 33.7367 62.2182 33.7533 62.1401C33.745 62.1647 33.7491 62.1565 33.7615 62.1236C33.7533 62.1236 33.7285 62.1729 33.7202 62.1812C33.6912 62.2223 33.6623 62.2634 33.6334 62.3086C33.5713 62.399 33.5093 62.4895 33.4431 62.5799C33.3191 62.7608 33.1909 62.9376 33.0669 63.1184C32.9924 63.2212 33.0462 63.3898 33.1537 63.4473C33.2777 63.5131 33.4101 63.472 33.4845 63.361C33.6375 63.1472 33.7863 62.9293 33.9393 62.7156C34.0138 62.6128 34.0882 62.5059 34.1585 62.4031C34.204 62.3415 34.2288 62.2675 34.2329 62.1894C34.2412 62.0743 34.175 61.9879 34.0882 61.9222C34.0014 61.8564 33.8649 61.8934 33.7946 61.9592C33.5424 62.1976 33.439 62.6005 33.5755 62.9252C33.6003 62.9869 33.6292 63.0362 33.6871 63.0691C33.7409 63.0979 33.8153 63.1102 33.8732 63.0938C33.9848 63.0568 34.0965 62.9211 34.0427 62.7978Z" fill="#FFF9ED"/>
<path d="M61.4323 27.0414C61.606 26.7865 61.7879 26.5357 61.9781 26.2891C63.4709 24.1966 66.7085 22.059 68.7305 20.4722L63.9133 20.2543C61.2463 20.1351 58.6206 20.7106 56.2554 21.7054C49.284 24.6571 44.7149 30.9714 41.254 37.372C46.4929 32.3362 52.0792 26.0671 59.2657 24.2501C58.7612 24.953 58.3064 25.6889 57.9177 26.4576C57.132 27.8759 56.3712 30.6055 55.8461 32.1553L58.9762 30.7782C64.1531 28.5254 70.0454 28.7885 75.2512 31.1317C71.6497 27.7978 66.3694 26.4042 61.4282 27.0414H61.4323Z" fill="#FFF9ED"/>
<path d="M79.1711 2.82417C68.2673 0.275429 56.3175 3.2887 47.6714 10.3224C47.6796 9.98533 47.6796 9.64412 47.6714 9.30703C47.6011 7.20637 47.1752 5.10982 46.3895 3.14482L45.1325 0C43.5075 2.47064 41.6303 5.27837 40.4477 7.97511C38.8185 11.5269 37.7228 15.3171 37.2059 19.1855C37.0695 20.2214 36.9744 21.2615 36.9165 22.3015C32.4921 19.8884 27.5137 18.462 22.4732 18.2318L18.9048 18.0755L21.6835 20.1762C27.4227 24.542 31.6734 30.7412 33.8649 37.5858C32.8477 31.4195 29.8995 25.619 25.6612 20.9984C25.9011 21.0518 26.1409 21.1053 26.3807 21.1628C30.3874 22.1371 34.1957 23.9007 37.5408 26.285L39.9225 27.9951L39.9846 25.0106C40.0879 19.2636 41.5104 13.5453 44.1071 8.41086C44.1443 8.75206 44.1732 9.08916 44.1856 9.43036C44.2477 11.1446 44.0451 12.8712 43.5365 14.5032L41.1837 22.0672L46.4309 16.1434C50.3549 11.6913 55.4739 8.32864 61.0602 6.25676C66.2206 4.36164 71.7986 3.58469 77.298 4.0821C76.9176 4.44386 76.5579 4.82206 76.2105 5.2126C74.0852 7.65035 72.6173 10.676 72.1252 13.8619C73.3657 9.91133 75.9748 6.39242 79.4647 4.13555L80.8706 3.23115L79.167 2.82417H79.1711Z" fill="#FFF9ED"/>
<path d="M45.4675 134.812C44.0409 130.705 43.5406 126.327 43.9334 121.978C44.0864 120.202 44.4007 118.418 44.8265 116.605C43.7391 118.122 42.9162 119.84 42.3125 121.637C41.3077 124.638 40.9769 127.857 41.2664 131.022C38.4836 126.549 37.0612 121.226 37.0322 115.964C34.7746 121.978 35.9654 128.921 39.3933 134.29C40.5676 136.119 42.0065 137.797 43.6853 139.211L49.3625 144C48.6348 142.261 46.0753 136.498 45.4633 134.812H45.4675Z" fill="#FFF9ED"/>
<path d="M72.5677 123.713C72.0343 121.292 71.1328 118.969 69.9089 116.856C68.2177 113.941 65.8939 111.356 63.0656 109.543C66.9773 114.472 69.512 120.601 69.7187 126.849L69.8221 129.731L72.3237 128.099C81.7761 121.908 88.6194 111.302 89.1445 99.9684C85.6629 109.115 80.1387 117.501 72.5718 123.717L72.5677 123.713Z" fill="#FFF9ED"/>
<path d="M106.949 23.0703C106.209 20.6037 105.039 18.2934 103.385 16.2873C99.9159 16.4271 96.455 16.6367 92.9982 16.8957C93.5854 14.4539 94.8217 12.1682 96.5377 10.3306C97.9188 8.72329 101.682 6.48697 103.41 5.21671L97.9394 5.13449C94.9582 5.08927 91.9852 5.54147 89.1693 6.4253C80.9078 8.99872 73.6262 15.3952 70.9468 23.6417C75.8177 15.8803 84.1082 10.2813 93.1595 8.92883C91.0093 11.6502 89.6986 15.0294 89.5663 18.4948L89.5042 20.4023C93.8624 19.7939 98.2289 19.1197 102.566 18.3386C105.432 21.5369 107.392 25.7423 107.202 30.0916C107.772 27.7978 107.603 25.3436 106.954 23.0703H106.949Z" fill="#FFF9ED"/>
<path d="M23.7633 10.9719C19.9013 10.3183 16.0807 9.862 12.1442 10.2238C10.1388 10.3717 7.93075 11.3255 6.07005 12.1764C9.23325 15.831 12.1236 19.7363 14.6045 23.8801C13.1738 23.6704 11.7142 23.6334 10.2752 23.765C7.43043 24.0199 4.65177 24.9407 2.27006 26.4782L0 27.9458L2.48922 28.7309C5.54905 29.7093 8.44348 31.4647 10.9947 33.4502C13.5832 35.5344 15.9607 37.9845 17.3542 41.0595C16.0104 35.6454 11.0361 30.5438 5.90878 27.6457C9.63847 26.4247 13.8106 26.5645 17.4038 28.1349L21.6669 29.9971L19.5953 25.804C17.4328 21.43 14.7451 17.315 11.6191 13.5618C13.0126 13.2247 14.5342 13.0932 16.0931 13.0685C20.9102 13.0274 25.93 13.0233 30.4701 14.8197C32.7485 15.7282 34.849 17.0971 36.4658 18.9512C33.9931 14.3346 28.7376 11.9133 23.7633 10.9802V10.9719Z" fill="#FFF9ED"/>
<path d="M107.14 93.4321C108.302 100.963 102.831 107.343 97.6128 112.087C97.588 112.112 97.5591 112.137 97.5301 112.157C97.1125 108.515 95.6859 104.61 92.6923 102.723C93.2008 105.995 93.4241 109.029 94.0278 112.239C94.309 113.982 94.8631 116.153 95.2642 117.884L97.0794 116.395C103.22 111.084 110.286 101.909 107.14 93.4321Z" fill="#FFF9ED"/>
<path d="M92.593 119.474C91.9108 117.472 91.6751 115.388 91.1417 113.357C90.7695 111.906 90.0873 110.62 89.5497 109.189C87.4161 111.055 87.6766 114.792 88.5036 117.226C89.1114 119.433 89.9343 121.579 90.9597 123.626C88.1728 122.529 85.4148 121.328 82.9628 119.614C84.2198 121.345 85.9978 122.66 87.7386 123.881C90.3602 125.723 93.5978 127.347 96.4798 128.794C95.0326 125.929 93.449 122.574 92.593 119.479V119.474Z" fill="#FFF9ED"/>
<path d="M64.1118 105.271C65.3936 101.522 67.8911 98.2253 70.8806 95.6108C69.1357 96.6632 67.4941 97.9376 66.08 99.4586C56.9997 109.185 60.0347 124.095 65.2571 134.968C65.497 135.466 65.7368 135.955 65.9849 136.436C61.3745 134.672 56.9501 132.165 53.8324 128.424C47.0677 119.302 46.9023 107.425 53.6215 98.1884C48.6679 103.023 46.0339 110.159 46.5922 117.066C46.985 121.777 48.6596 126.397 51.3349 130.298C54.9695 135.129 60.3904 138.064 65.9229 140.144C67.982 140.954 71.443 141.772 73.6386 142.343C66.787 132.268 59.9231 117.468 64.1159 105.267L64.1118 105.271Z" fill="#FFF9ED"/>
<path d="M44.6322 58.0333C43.0403 58.0703 41.6675 57.2687 40.2203 56.726C38.9881 56.2697 37.5781 56.1587 36.2962 56.504C36.4327 56.4259 36.5857 56.3478 36.7469 56.2738C38.3141 55.5709 40.0631 56.0231 41.6468 56.5123C43.3049 56.9398 44.9134 57.725 46.6418 57.8318C46.2117 57.8031 45.7983 57.6756 45.3889 57.5441C42.5441 56.7055 39.6 54.7076 36.5526 55.8093C35.7049 56.1505 34.9276 56.763 34.4645 57.5482C33.836 58.8102 33.9766 60.1052 33.6747 61.3754C33.1413 62.9663 31.8305 64.3723 30.8588 65.7453L32.1655 65.0177C34.2867 63.9571 36.7056 63.4021 39.079 63.2212C41.2788 63.1842 42.9245 61.7331 44.0368 59.9736C44.4131 59.4762 44.719 58.9377 44.8679 58.3375C44.9051 58.1895 44.7935 58.0292 44.6322 58.0333ZM33.8939 62.584C33.869 62.5923 33.8484 62.6005 33.8236 62.6087C33.8484 62.5635 33.8732 62.5224 33.8939 62.473C33.8939 62.51 33.8939 62.547 33.8939 62.5799V62.584ZM43.0568 60.1792C42.6516 60.6684 42.2133 61.1247 41.6923 61.4905C40.6792 62.2017 39.4594 62.584 38.2314 62.7115C37.5781 62.7772 36.9206 62.7772 36.2673 62.7279C35.738 62.6909 35.217 62.584 34.6878 62.5306C34.696 62.5141 34.7043 62.4977 34.7043 62.4771C34.7167 62.3949 34.725 62.3127 34.7332 62.2305C35.0599 61.6056 35.2046 60.915 35.3535 60.2244C35.7256 60.8328 36.1887 61.5728 36.3789 61.7701C36.7676 62.1812 37.1356 62.3785 37.4912 62.3785C37.5078 62.3785 37.5243 62.3785 37.545 62.3785C37.8923 62.362 38.219 62.1524 38.5167 61.7619C39.3519 60.6766 39.7572 58.8185 39.7778 58.5019C39.7902 58.3169 39.815 57.9593 39.8316 57.6592C40.0879 57.7414 40.3443 57.8236 40.5883 57.8935C41.684 58.2142 42.8501 58.7116 44.0078 58.654C44.0533 58.654 44.0947 58.6376 44.1278 58.617C44.1443 58.617 44.1567 58.617 44.1732 58.617C44.0078 59.1843 43.3876 59.7845 43.0568 60.1792Z" fill="#FFF9ED"/>
<path d="M14.7616 58.7527C13.5253 58.0991 12.2269 57.836 10.8955 57.5893C11.5819 56.0724 12.4089 54.1608 13.0539 52.8618C15.7995 47.4807 19.2769 42.5024 23.0811 37.8036C18.0241 42.8107 13.6369 48.5947 10.6515 55.0652C10.3828 55.6325 9.23325 58.0621 8.98929 58.58L9.84935 58.7239C10.0644 58.7609 10.2794 58.802 10.4944 58.8431C9.36143 61.7331 8.29049 66.3948 9.61366 69.2683C8.31944 70.6455 7.02934 72.113 5.98321 73.3134C2.84895 76.6679 0.0620237 81.0871 0.736014 85.8516C0.529268 81.1282 3.40303 77.0995 6.68201 73.9506C8.8363 71.739 10.8831 69.4903 13.2276 67.4472C14.3978 66.3003 15.8243 65.2767 16.366 63.6282C16.8125 61.877 16.3866 59.8421 14.7699 58.7527H14.7616ZM12.3592 66.5346C11.5323 67.2745 10.6143 68.1995 9.69636 69.1738C9.34903 67.5006 9.59299 65.7823 9.77906 64.0968C9.99821 62.3538 10.3125 60.6231 10.5771 58.8596C11.3131 59.0034 12.0491 59.172 12.7645 59.3858C12.7355 59.4022 12.7107 59.4269 12.69 59.4639C12.3096 60.1586 12.0574 60.9232 11.954 61.7043C11.9499 61.7207 11.9458 61.7413 11.9458 61.7577C11.9003 62.1154 11.8837 62.4813 11.9085 62.843C11.9416 63.3857 12.0284 63.9324 12.3675 64.3764C12.6528 64.7464 13.0167 65.067 13.3847 65.3671C13.3971 65.3794 13.4136 65.3918 13.426 65.4C13.4426 65.4164 13.4633 65.4288 13.4798 65.4452C13.0911 65.8275 12.6942 66.1934 12.3592 66.5387V66.5346ZM14.774 63.9283C14.0876 63.8337 13.4591 63.4761 13.0084 62.9622C12.8844 62.6292 12.781 62.288 12.7603 61.9304C12.7066 61.1041 12.9671 60.3066 13.2565 59.5379C13.5749 59.6406 13.8644 59.7681 14.1083 59.9448C13.8065 60.3477 13.4922 60.8862 13.5542 61.3302C13.6659 62.1113 13.7817 62.2716 14.0049 62.5758C14.1455 62.769 14.6334 63.2294 14.9808 63.546C14.9229 63.6734 14.8526 63.8008 14.774 63.9242V63.9283Z" fill="#FFF9ED"/>
<path d="M33.4142 83.3727C33.4142 83.3727 35.6181 84.8732 37.0984 84.7334C39.7117 84.4909 43.338 82.2834 45.5874 78.3821C47.1793 75.6155 49.6354 71.2744 49.6354 71.2744C49.6354 71.2744 44.6239 77.0872 43.5447 78.3451C42.4655 79.6031 41.8701 80.5157 38.3265 82.678C36.7345 83.6482 33.4183 83.3727 33.4183 83.3727H33.4142Z" fill="#FFF9ED"/>
</svg>
