<svg width="212" height="92" viewBox="0 0 212 92" fill="none" xmlns="http://www.w3.org/2000/svg">
<path fill-rule="evenodd" clip-rule="evenodd" d="M64.648 70.0642H59.5727V81.8007H62.4552V72.3623H64.1284C65.5215 72.3623 66.3232 73.4643 66.3232 74.7902C66.3232 76.4835 64.5987 77.1913 63.3533 77.1913C63.8417 77.899 64.863 78.0735 65.6514 78.0735C67.5821 78.0735 69.2238 76.5507 69.2238 74.4363C69.2238 72.837 68.3008 70.0642 64.648 70.0642Z" fill="#FFF9ED"/>
<path fill-rule="evenodd" clip-rule="evenodd" d="M75.6098 77.3929L77.2266 72.5592L78.7408 77.3929H75.6098ZM75.3588 70.0642L71.3094 81.8007H74.0865L74.7897 79.6907H79.5112L80.1967 81.8007H83.2248L79.3635 70.0642H75.3588Z" fill="#FFF9ED"/>
<path fill-rule="evenodd" clip-rule="evenodd" d="M165.666 77.3929L167.278 72.5592L168.797 77.3929H165.666ZM165.415 70.0642L161.365 81.8007H164.143L164.842 79.6907H169.567L170.253 81.8007H173.281L169.42 70.0642H165.415Z" fill="#FFF9ED"/>
<path fill-rule="evenodd" clip-rule="evenodd" d="M95.8927 77.8273L90.6896 70.0642H87.2022V81.8007H89.9347V74.087L95.1712 81.8007H98.643V70.0642H95.8927V77.8273Z" fill="#FFF9ED"/>
<path fill-rule="evenodd" clip-rule="evenodd" d="M103.275 72.443H106.778V81.8007H109.661V72.443H113.166V70.0642H103.275V72.443Z" fill="#FFF9ED"/>
<path fill-rule="evenodd" clip-rule="evenodd" d="M125.135 74.7588H120.194V70.0642H117.312V81.8007H120.194V77.0569H125.135V81.8007H128.02V70.0642H125.135V74.7588Z" fill="#FFF9ED"/>
<path fill-rule="evenodd" clip-rule="evenodd" d="M136.665 77.0569H141.158V74.7588H136.665V72.3623H142.298V70.0642H133.778V81.8007H142.28L142.43 79.5027H136.665V77.0569Z" fill="#FFF9ED"/>
<path fill-rule="evenodd" clip-rule="evenodd" d="M156.908 79.8027C156.003 78.5976 155.246 77.6212 154.023 77.133C155.515 76.8821 157.087 75.7622 157.087 73.8494C157.087 72.0891 155.569 70.0642 152.178 70.0642H147.183V81.8007H150.068V72.3623H151.707C153.436 72.3623 154.104 73.4329 154.104 74.4363C154.104 76.0309 152.128 76.5461 151.022 76.6671C152.227 77.4869 152.917 79.1667 153.857 80.5777C154.427 81.4335 155.063 81.935 156.407 81.935C156.991 81.935 158.165 81.8185 158.749 81.196C158.198 81.111 157.661 80.8107 156.908 79.8027Z" fill="#FFF9ED"/>
<path fill-rule="evenodd" clip-rule="evenodd" d="M32.2744 23.9926C37.034 25.09 46.1857 26.8727 53.0148 27.4283C58.3901 27.8672 61.5079 27.3969 61.4832 27.4372C60.6074 28.8438 59.9266 30.6937 58.3901 33.1935C58.3901 33.1935 56.5625 36.7099 54.2062 38.5913C53.4672 39.1872 52.7145 39.5455 52.4324 39.6888C51.9732 39.9173 52.7078 40.0112 52.7078 40.0112C52.7078 40.0112 61.0801 40.8668 65.8754 34.9494C67.7299 32.6604 68.3997 31.3792 69.5398 29.8294C75.3451 21.9365 79.2064 19.2622 86.6514 18.4064C87.2831 18.3349 89.4242 18.0704 89.9237 18.0436C93.8007 17.833 90.8689 17.0177 88.2754 16.4532C87.2225 16.2249 78.6443 14.5135 68.8589 18.0122C55.7741 22.6844 38.4473 19.4635 31.6654 18.2677C13.3866 15.0558 10.2039 23.8581 10.0066 27.8851C9.80509 32.0331 14.3004 32.8978 14.5087 29.8069C15.0865 21.3271 26.469 22.6486 32.2744 23.9926Z" fill="#FFF9ED"/>
<path fill-rule="evenodd" clip-rule="evenodd" d="M124.822 52.8027C125.104 52.7624 125.122 52.5518 124.84 52.5069C122.351 52.1262 114.839 46.1594 109.462 40.4568C99.2618 29.6522 85.9664 41.3351 83.5071 42.9252C81.1688 44.4347 74.9601 48.883 69.5152 50.6121C66.1086 51.6916 61.8934 52.4308 58.0274 52.4399C58.0274 52.4399 54.5289 52.3322 51.0754 51.687C37.3142 49.1429 39.1867 47.1629 37.6277 47.633C35.2626 48.3408 27.8489 54.5854 26.279 55.7458C23.9004 57.5107 22.7781 58.1018 20.7647 58.3571C18.7599 58.6081 17.7342 58.2228 17.275 58.6037C16.5851 59.1815 16.4889 61.0135 16.8023 61.9633C17.2907 63.4414 18.9144 65.7485 22.1643 64.969C26.0705 64.0327 32.2432 57.7837 37.471 57.0044C39.4015 56.7177 44.3113 56.1488 53.2479 55.7548C53.2479 56.5341 52.4327 57.7076 51.4918 58.9306C49.8881 61.0314 46.6003 62.1201 46.6003 62.1201C45.9776 62.4022 45.4624 63.0696 45.2877 63.5086C44.1814 66.2548 41.1127 73.4131 40.8218 74.1969C40.5083 75.0346 39.8273 77.3821 42.3694 80.7593C42.6876 81.1941 42.9494 81.4808 43.6685 81.7224C44.6203 82.0451 49.306 82.0092 50.0451 81.521C50.7797 81.0417 50.5715 78.9317 50.1906 78.3001C49.4065 77.0145 47.7202 76.656 47.7202 76.656C45.0884 67.8718 57.4587 64.2255 57.4587 64.2255C82.459 56.2249 83.4042 46.8358 84.188 45.5232L84.2149 45.5099C85.5185 45.1246 92.8983 42.8936 99.0959 45.7116C104.001 47.9467 115.03 54.1823 124.822 52.8027Z" fill="#FFF9ED"/>
<path fill-rule="evenodd" clip-rule="evenodd" d="M200.736 51.9437C200.476 50.9402 200.257 50.4296 199.352 49.6634C197.636 48.23 191.468 44.2747 189.757 44.2252C189.094 44.2074 176.014 42.5365 170.903 42.3708C171.682 41.8019 172.869 39.2173 173.783 35.7857C174.329 33.7117 174.966 33.0668 176.341 33.1967C176.408 33.2056 176.493 33.2192 176.591 33.2327C177.402 33.8822 177.976 35.0601 179.803 35.4632C181.035 35.741 183.262 35.1586 185.21 35.3021C185.873 35.3782 186.263 35.4319 187.015 35.6695C187.015 35.6695 187.024 35.6649 187.033 35.6649C188.731 36.1039 190.245 37.3851 191.164 37.3268C192.709 37.3268 194.183 35.3782 194.272 35.1767C194.272 35.1767 191.817 35.0289 191.132 34.3972C189.851 33.2146 191.033 32.7844 188.704 31.7812C186.379 30.7688 181.608 31.9515 179.27 30.5806C178.321 29.7384 177.389 28.7665 176.067 28.4798C174.078 28.0588 168.439 28.3139 168.439 28.3139C168.143 28.3274 168.143 28.4395 168.201 28.8919C168.712 33.6356 165.29 36.5205 163.404 37.8689C160.738 39.7772 159.296 40.6642 159.296 40.6642C158.927 40.8521 158.781 41.0314 158.927 41.327C159.014 41.5017 159.323 41.5196 161.137 41.9406C164.08 42.6263 173.08 45.8067 174.038 46.4652C175.736 47.6478 175.942 50.8731 175.942 50.8731C175.942 50.8731 175.861 51.2089 176.336 51.1687C177.828 51.0434 187.75 50.5953 189.6 50.9267C191.795 51.3164 194.917 53.8698 194.693 54.6805C194.693 54.6805 193.013 60.4861 199.258 60.1414C200.445 60.074 200.956 58.3717 200.996 57.5386C200.996 57.5386 201.175 53.6638 200.736 51.9437Z" fill="#FFF9ED"/>
<path fill-rule="evenodd" clip-rule="evenodd" d="M191.876 26.3112C191.876 26.2977 191.872 26.2888 191.867 26.2798C191.872 26.2888 191.872 26.3023 191.876 26.3156V26.3112Z" fill="#FFF9ED"/>
<path fill-rule="evenodd" clip-rule="evenodd" d="M170.284 57.6594C171.269 57.0905 171.453 54.2058 171.404 52.7545C171.354 51.9615 171.09 50.2279 170.526 49.5694C169.495 48.3645 154.809 46.2231 140.621 47.2176C135.413 47.5804 134.307 44.1984 134.307 44.1984C133.113 42.0169 138.842 34.4866 138.842 34.4866C138.672 34.1196 138.309 34.1105 137.801 34.3344C133.301 36.3234 128.638 42.1691 127.408 46.5323C126.04 51.3837 132.857 52.5439 134.952 52.378C144.162 51.6434 163.892 51.7823 164.416 51.8362C164.855 51.8809 165.271 53.1978 164.828 53.5473C164.263 53.9996 163.13 54.3133 161.415 54.6895C161.415 54.6895 157.024 56.011 159.905 60.9431C160.406 61.8031 161.392 61.6284 162.315 61.4088C162.315 61.4088 166.893 59.6082 170.284 57.6594Z" fill="#FFF9ED"/>
<path fill-rule="evenodd" clip-rule="evenodd" d="M177.694 20.2649C179.364 18.6163 180.256 18.0564 179.602 15.9242C179.158 14.4681 179.633 13.8949 180.386 13.8275C181.112 13.756 182.039 15.194 184.216 16.1928C186.433 17.2185 186.662 17.3933 189.264 18.7864C192.162 20.3365 192.543 21.0577 192.53 22.9076C192.512 25.2058 196.324 26.8317 196.427 28.4445C196.503 29.5777 194.796 29.2956 194.796 29.2956C194.559 31.571 196.172 31.1053 197.448 32.0281C198.694 31.0022 199.84 30.0077 199.863 28.8028C199.885 27.3288 196.342 22.6163 196.288 21.1428C196.216 18.8987 194.658 17.5724 193.95 16.9499C192.288 15.494 188.955 13.7693 188.955 13.7693C188.601 11.9373 188.023 10.916 187.029 10.6561C185.569 10.2708 183.786 11.897 183.786 11.897C181.564 10.0065 179.888 9.80507 178.482 10.123C177.174 10.423 175.714 11.4984 175.79 14.401C175.852 16.9365 177.694 20.2649 177.694 20.2649Z" fill="#FFF9ED"/>
<path fill-rule="evenodd" clip-rule="evenodd" d="M125.915 22.9308C126.813 23.3475 128.096 23.8581 129.651 24.3372C133.324 25.4662 137.167 25.8515 139.053 24.8391C147.652 20.243 150.355 17.7525 155.059 17.842C155.31 17.8598 155.995 17.8509 156.264 17.8777C159.227 18.2137 161.312 18.8364 164.945 22.2453C164.945 22.2453 165.362 22.6441 165.478 22.6081C165.653 22.5545 165.017 17.2192 168.985 16.1936C172.601 15.2575 173.801 14.6213 171.991 14.2763C171.006 14.0881 169.187 14.0478 165.124 14.7735C162.692 15.2082 160.658 15.7769 155.952 14.908C153.155 14.3973 151.368 13.9135 149.473 14.0478C146.33 14.1913 143.461 15.5353 139.931 17.0939C139.049 17.4567 138.101 17.8465 137.06 18.2495C127.481 21.9675 124.759 21.1658 124.405 21.9407C124.293 22.1781 124.826 22.5141 125.915 22.9308Z" fill="#FFF9ED"/>
</svg>
