<svg width="144" height="144" viewBox="0 0 144 144" fill="none" xmlns="http://www.w3.org/2000/svg">
<path fill-rule="evenodd" clip-rule="evenodd" d="M105.267 11.0801C109.829 11.0801 114.961 15.9845 114.961 20.8897C114.961 23.8548 111.083 29.1014 106.635 29.1014C103.214 29.1014 105.037 24.4248 98.6507 22.8283C97.2821 22.2583 96.7113 21.3454 96.7113 20.0903C96.7121 14.9581 101.959 11.0801 105.267 11.0801ZM63.4575 47.482C63.4575 43.1483 67.4498 38.1288 71.8978 38.1288C74.4064 38.1288 77.373 40.4103 77.373 45.3148C77.373 45.7705 72.1256 54.4393 68.5906 54.4393C65.3969 54.4393 63.4575 51.5878 63.4575 47.482ZM88.1022 47.8406L88.2173 47.4984C89.3565 43.3918 91.7524 41.1111 94.376 41.1111C97.7976 41.1111 101.562 45.4455 101.562 50.8064C101.562 55.0265 98.9383 58.1059 95.7446 58.1059C93.3488 58.1059 92.2096 56.6237 91.1824 53.7715C90.0408 50.6921 89.9273 50.4635 88.1022 47.8406ZM74.573 61.4796C74.573 60.111 75.5987 59.4267 77.1952 59.4267C84.9519 59.4267 86.6634 61.3653 86.6634 62.6196C86.6634 63.7604 86.2069 63.8747 83.5833 64.3311C80.8461 64.7876 81.1875 66.2698 80.1617 66.2698C79.1345 66.2698 79.8188 64.559 77.4245 63.6468C75.2558 62.8482 74.573 62.3925 74.573 61.4796Z" fill="#FFF9ED"/>
<path fill-rule="evenodd" clip-rule="evenodd" d="M111.936 41.0279C111.936 57.3385 104.067 64.8666 91.9753 64.8666C87.3002 64.8666 89.6946 69.3153 84.9044 69.3153C82.9651 69.3153 81.8243 67.2617 79.5435 67.2617C78.2885 67.2617 76.9199 67.9467 75.4377 67.9467C70.6468 67.9467 71.6733 62.7001 70.0768 62.0158C63.3473 59.2778 63.233 59.2778 61.9787 58.48C56.96 55.0577 54.7927 50.3819 54.7927 43.3102C54.7927 36.2386 57.53 27.114 61.9787 23.1217C63.3473 24.0346 64.1459 24.4903 64.9438 24.4903C66.6553 24.4903 67.2253 22.0952 71.1033 20.7266C75.8934 19.0151 75.8934 19.0151 75.8934 16.5065C75.8934 9.8913 72.0162 6.35547 67.9096 6.35547C62.5487 6.35547 57.3021 10.8035 57.3021 15.1379C57.3021 17.3051 58.5564 19.4723 60.2679 21.2974C50.9148 27.0004 45.4403 35.8964 45.4403 46.7325C45.4403 50.3826 46.0103 51.6369 46.0103 54.2606C46.0103 57.34 44.8696 59.165 44.8696 62.1309C44.8696 63.613 45.4642 66.5676 46.4668 68.2904C37.5701 61.6751 32.6656 53.1206 32.6656 43.1974C32.6656 33.3885 37.3422 25.5183 45.4403 19.8152L46.0103 19.3588C34.7185 24.0354 27.1904 35.6693 27.1904 50.3826C27.1904 58.025 29.4719 62.5866 29.4719 64.8681C29.4719 65.781 29.1298 67.8339 29.1298 70.4568C29.1298 75.1327 32.7799 83.8015 35.9736 87.9074C38.483 91.101 42.3609 92.9268 46.9232 92.9268C50.4591 92.9268 52.8541 91.7861 52.8541 89.8467C52.8541 88.4781 51.0298 85.2844 50.9148 78.0992L57.1878 90.1896C63.1187 101.481 67.681 105.017 77.6049 105.017C81.8243 105.017 84.448 103.762 84.448 101.596C84.448 99.8842 81.0264 95.6648 81.0264 83.8023C81.0264 78.4414 82.2815 75.5906 85.2458 75.5906C87.4138 75.5906 88.4395 77.4157 88.4395 81.5215C88.4395 87.6803 86.9574 94.4098 86.9574 96.3491C86.9574 98.8585 88.7824 100.341 92.4318 100.341C98.7041 100.341 104.408 96.4634 107.488 90.7611C112.05 82.3201 115.243 65.8953 115.243 57.7972C115.244 51.179 113.647 44.3359 111.936 41.0279ZM80.3847 72.813C77.6475 72.813 75.0253 71.1015 74.5689 69.0486C78.4469 69.9615 81.5255 70.4172 85.0613 70.4172C84.1492 71.9001 82.6662 72.813 80.3847 72.813ZM113.747 95.8157C112.047 95.8157 110.668 97.1522 110.668 98.7853C110.668 100.451 112.047 101.787 113.747 101.787C115.44 101.787 116.81 100.452 116.81 98.7853C116.809 97.1522 115.439 95.8157 113.747 95.8157ZM113.747 101.203C112.361 101.203 111.252 100.146 111.252 98.7853C111.252 97.4645 112.36 96.3999 113.747 96.3999C115.117 96.3999 116.226 97.4652 116.226 98.7853C116.226 100.146 115.117 101.203 113.747 101.203Z" fill="#FFF9ED"/>
<path fill-rule="evenodd" clip-rule="evenodd" d="M115.321 98.005C115.321 97.7264 115.194 97.4298 114.94 97.2871C114.679 97.1429 114.392 97.125 114.104 97.125H112.606V100.467H113.114V98.9269H113.715L114.695 100.467H115.279L114.238 98.9269C114.849 98.9105 115.321 98.6639 115.321 98.005ZM113.673 98.5123H113.114V97.5053H114.002C114.434 97.5053 114.813 97.565 114.813 97.9968C114.814 98.5967 114.155 98.5123 113.673 98.5123ZM96.5986 136.62C98.792 136.62 99.4509 136.049 99.4509 134.339V118.141C99.4509 116.545 98.5373 116.088 96.4843 116.088V115.29H115.533V121.336H114.735C114.735 118.142 112.796 116.775 109.488 116.775H106.295V125.442H107.777C110.286 125.442 110.857 123.846 110.971 121.109H111.768V131.146H110.971C110.971 128.409 109.943 126.811 107.777 126.811H106.295V134.225C106.295 136.164 106.865 136.62 109.145 136.62V137.418H96.5986V136.62ZM44.1648 122.706L38.801 137.647H36.9759L31.2729 120.766C29.79 116.09 29.2902 116.106 27.8506 116.09V115.292H38.5724V116.09C36.7608 116.119 36.7309 117.486 37.0902 118.714L40.5117 129.092L43.4805 120.766C41.9976 116.09 41.4979 116.106 40.059 116.09V115.292H50.7808V116.09C48.9692 116.119 48.9393 117.486 49.2979 118.714L52.7194 129.092L56.5974 118.371C57.0023 116.818 56.5974 116.204 55.3423 116.09V115.292H60.7032V116.09C59.3346 116.09 58.536 116.661 57.7382 118.941L51.0087 137.646H49.1843L44.1648 122.706ZM78.7335 122.706L73.3696 137.647H71.5445L65.8415 120.766C64.3586 116.09 63.8588 116.106 62.4192 116.09V115.292H73.1403V116.09C71.3294 116.119 71.2995 117.486 71.6581 118.714L75.0796 129.092L78.0492 120.766C76.567 116.09 76.0665 116.106 74.6276 116.09V115.292H85.3494V116.09C83.5371 116.119 83.5079 117.486 83.8673 118.714L87.2888 129.092L91.1668 118.371C91.5709 116.818 91.1668 116.204 89.9117 116.09V115.292H95.2726V116.09C93.904 116.09 93.1061 116.661 92.306 118.941L85.5765 137.646H83.753L78.7335 122.706Z" fill="#FFF9ED"/>
</svg>
