<svg width="115" height="149" viewBox="0 0 115 149" fill="none" xmlns="http://www.w3.org/2000/svg">
<path d="M12.3574 31.2986C12.0053 31.5173 11.6197 31.7023 11.2172 31.8368C10.8987 31.9377 10.5801 32.005 10.2447 32.005L9.59082 30.2223C9.84233 30.2391 10.1106 30.2223 10.3621 30.1718C10.6807 30.1045 10.9993 30.0036 11.3011 29.8691C11.6029 29.7345 11.8879 29.5327 12.1059 29.2973C12.3742 29.0282 12.5586 28.6582 12.5921 28.2714C12.5921 28.0864 12.5754 27.9014 12.5083 27.7164C12.4412 27.5482 12.3239 27.38 12.173 27.2623C11.9885 27.0773 11.7706 26.9595 11.519 26.9091C11.2675 26.8586 11.016 26.8586 10.7645 26.9091C10.4963 26.9595 10.1106 27.0605 9.60759 27.195C8.90337 27.38 8.33328 27.5145 7.89734 27.5818C7.42786 27.6491 6.95838 27.6323 6.50566 27.5145C5.96911 27.38 5.48286 27.0941 5.09722 26.7073C4.69481 26.3373 4.37623 25.8495 4.20856 25.3282C4.05766 24.8236 4.05766 24.2686 4.20856 23.7473C4.393 23.1418 4.72834 22.6036 5.18106 22.1664C5.96911 21.3255 6.89131 20.8714 7.93087 20.8041L8.50096 22.6036C8.29975 22.5868 8.09854 22.5868 7.91411 22.6036C7.6626 22.6373 7.41109 22.7045 7.17635 22.8055C6.92484 22.9232 6.6901 23.0745 6.4889 23.2764C6.35476 23.3941 6.25416 23.5455 6.18709 23.7136C6.12002 23.8818 6.08648 24.05 6.08648 24.235C6.08648 24.4032 6.13679 24.5714 6.20385 24.7227C6.27092 24.8741 6.37153 25.0086 6.50566 25.1264C6.6901 25.3114 6.92484 25.4291 7.17635 25.4795C7.44462 25.53 7.69613 25.53 7.96441 25.4795C8.23268 25.4291 8.58479 25.345 9.02074 25.2273C9.62436 25.0591 10.228 24.9077 10.8316 24.79C11.3011 24.7227 11.7706 24.7395 12.2233 24.8573C12.7431 24.9918 13.2293 25.2777 13.5982 25.6645C14.0341 26.0682 14.3527 26.5727 14.5371 27.1445C14.688 27.6827 14.6713 28.2545 14.4868 28.7759C14.2689 29.3814 13.9335 29.9364 13.4808 30.3905C13.1455 30.7436 12.7766 31.0464 12.3742 31.2986H12.3574Z" fill="#FFF9ED"/>
<path d="M20.1206 22.015L16.9684 24.5377L17.5217 26.2027L15.7444 27.6155L12.3574 15.6073L12.4915 15.5064L23.3567 21.5441L21.6297 22.9232L20.1206 22.0318V22.015ZM18.6786 21.1573L15.845 19.4755L15.0737 18.9373L15.4258 19.8118L16.4486 22.94L18.6786 21.1573Z" fill="#FFF9ED"/>
<path d="M24.3795 7.85409L26.3412 19.9295L26.1233 20.0641L16.4821 12.5968L18.4104 11.4364L22.4848 14.8L23.9771 16.1118L23.5579 14.1609L22.4848 8.99773L24.3795 7.85409Z" fill="#FFF9ED"/>
<path d="M36.0494 13.135L36.7536 14.8336L31.036 17.2723L26.643 6.82818L32.0588 4.52409L32.7463 6.15546L29.1916 7.66909L30.2144 10.1077L33.0481 8.89682L33.7188 10.4777L30.9019 11.6886L32.193 14.7664L36.0327 13.1182L36.0494 13.135Z" fill="#FFF9ED"/>
<path d="M50.9051 0.0168182L49.2284 11.8568L48.9769 11.9073L45.2378 5.98727L43.8294 12.8323L43.5611 12.8827L37.8603 2.38818L40.0568 1.98455L43.1587 8.10636L44.3156 1.21091L44.5839 1.16045L48.0882 7.18136L48.7589 0.403636L50.9387 0L50.9051 0.0168182Z" fill="#FFF9ED"/>
<path d="M53.4537 0.134545L55.5161 0.0504545L55.9353 11.3691L53.8729 11.4532L53.4537 0.134545Z" fill="#FFF9ED"/>
<path d="M64.0171 9.88909L63.9165 11.6718L58.5174 11.3523L59.1546 0.0504545L61.2002 0.168182L60.6469 9.70409L64.0003 9.90591L64.0171 9.88909Z" fill="#FFF9ED"/>
<path d="M73.9097 3.38045C74.5971 4.45682 74.7648 5.90318 74.4127 7.68591C74.178 8.84636 73.7923 9.82182 73.239 10.5955C72.7192 11.3355 71.9982 11.9073 71.1431 12.2268C70.3047 12.5464 69.349 12.5968 68.2759 12.3782L65.4255 11.8232L67.6052 0.706364L70.4557 1.27818C72.0653 1.59773 73.2222 2.28727 73.9097 3.38045ZM70.4389 10.4441C70.9587 10.175 71.3946 9.73773 71.6797 9.21636C71.9982 8.62773 72.2162 7.98864 72.3503 7.33273C72.5683 6.20591 72.518 5.23045 72.1827 4.40636C71.8473 3.58227 71.1599 3.06091 70.0868 2.85909L69.349 2.70773L67.8232 10.4777L68.561 10.6291C69.2987 10.7636 69.9191 10.7132 70.4389 10.4441Z" fill="#FFF9ED"/>
<path d="M79.3758 15.0859C78.9063 14.4132 78.638 13.5723 78.6045 12.58C78.571 11.5877 78.7889 10.4777 79.292 9.25C79.7447 8.14 80.3315 7.28227 81.0525 6.64318C81.7064 6.03773 82.5113 5.65091 83.3832 5.49955C84.2215 5.365 85.0766 5.48273 85.8647 5.81909C86.3006 5.98727 86.7031 6.22273 87.0887 6.49182C87.3402 6.67682 87.5749 6.91227 87.7761 7.16455C87.927 7.38318 88.0612 7.61864 88.1618 7.85409L86.6695 9.08182C86.5857 8.86318 86.5018 8.64455 86.3845 8.44273C86.2839 8.27455 86.133 8.10636 85.9821 7.98864C85.7473 7.80364 85.4958 7.66909 85.2275 7.55136C84.7581 7.34955 84.255 7.31591 83.7688 7.45045C83.249 7.61864 82.7963 7.92136 82.4442 8.325C82.0082 8.81273 81.6729 9.38455 81.4214 9.99C81.1028 10.7132 80.9016 11.4868 80.8178 12.2605C80.7675 12.9332 80.8513 13.505 81.0693 13.9423C81.2537 14.3627 81.5891 14.6823 82.0082 14.8673C82.4107 15.0355 82.8298 15.1364 83.2658 15.17C83.6011 15.2036 83.9365 15.1532 84.2383 15.0186L84.4395 16.8518C84.0035 16.9864 83.5341 17.0368 83.0813 17.02C82.5783 17.02 81.9579 16.8518 81.2369 16.5491C80.4992 16.2464 79.862 15.725 79.3926 15.0691L79.3758 15.0859Z" fill="#FFF9ED"/>
<path d="M90.6936 19.5427L87.2396 17.4741L85.8982 18.5841L83.9532 17.4236L93.9129 9.97318L94.0471 10.0573L92.3033 22.4186L90.4086 21.2918L90.6936 19.5595V19.5427ZM90.9787 17.8777L91.532 14.615L91.75 13.69L91.0625 14.3459L88.5307 16.4145L90.9787 17.8777Z" fill="#FFF9ED"/>
<path d="M103.219 19.1223L101.173 17.5077L95.3549 24.975L93.7117 23.68L99.5299 16.2127L97.4843 14.5982L98.6077 13.1518L104.342 17.6759L103.219 19.1223Z" fill="#FFF9ED"/>
<path d="M99.379 28.5741C99.1611 28.2041 99.0102 27.8173 98.8928 27.4136C98.7922 27.0941 98.7419 26.7577 98.7586 26.4214L100.553 25.8159C100.519 26.0682 100.536 26.3373 100.586 26.5895C100.637 26.9091 100.737 27.2455 100.855 27.5482C100.989 27.8509 101.173 28.1368 101.391 28.3891C101.659 28.675 102.011 28.86 102.38 28.9105C102.565 28.9273 102.749 28.9105 102.934 28.8432C103.101 28.7759 103.269 28.675 103.386 28.5236C103.571 28.3555 103.705 28.12 103.755 27.8845C103.806 27.6323 103.806 27.38 103.772 27.1277C103.738 26.8586 103.655 26.4718 103.521 25.9505C103.386 25.3786 103.269 24.8068 103.185 24.2182C103.135 23.7473 103.185 23.2764 103.303 22.8223C103.453 22.2841 103.755 21.8132 104.158 21.4432C104.543 21.0395 105.03 20.7536 105.566 20.6023C106.086 20.4677 106.622 20.4845 107.125 20.6527C107.712 20.8714 108.249 21.2077 108.685 21.6786C109.49 22.5027 109.909 23.4445 109.959 24.4873L108.148 25.0086C108.182 24.8068 108.182 24.605 108.148 24.42C108.131 24.1677 108.064 23.8986 107.964 23.6632C107.863 23.3941 107.712 23.1586 107.511 22.9568C107.394 22.8223 107.243 22.7214 107.092 22.6373C106.924 22.57 106.757 22.5195 106.572 22.5195C106.404 22.5195 106.237 22.5532 106.086 22.6205C105.935 22.6877 105.801 22.7886 105.683 22.9064C105.499 23.0914 105.365 23.31 105.315 23.5623C105.264 23.8145 105.248 24.0836 105.281 24.3527C105.315 24.6218 105.382 24.9918 105.499 25.4123C105.65 26.0177 105.784 26.64 105.868 27.2623C105.918 27.7332 105.885 28.2041 105.767 28.6582C105.616 29.1795 105.315 29.6505 104.912 30.0205C104.51 30.4409 103.99 30.7605 103.42 30.9118C102.883 31.0464 102.313 31.0127 101.794 30.8109C101.207 30.5755 100.67 30.2223 100.234 29.7514C99.8988 29.415 99.6138 29.0282 99.3623 28.6077L99.379 28.5741Z" fill="#FFF9ED"/>
<path d="M18.0582 125.346L16.2977 127.734L18.9637 129.735L17.8906 131.199L15.2246 129.197L12.4077 132.998L10.7478 131.754L17.4714 122.655L22.183 126.187L21.1266 127.616L18.075 125.329L18.0582 125.346Z" fill="#FFF9ED"/>
<path d="M19.735 137.337C19.3326 136.547 19.1816 135.655 19.299 134.781C19.3996 133.839 19.7182 132.83 20.2883 131.787C20.7745 130.845 21.4284 130.005 22.2165 129.315C22.8872 128.743 23.7088 128.373 24.5807 128.272C25.419 128.188 26.2742 128.373 27.1461 128.844C28.0515 129.332 28.7054 129.971 29.091 130.728C29.4935 131.518 29.6276 132.41 29.5102 133.284C29.3761 134.327 29.0407 135.336 28.521 136.244C27.9509 137.287 27.3137 138.111 26.576 138.716C25.9053 139.288 25.0837 139.641 24.2118 139.742C23.3734 139.826 22.5183 139.641 21.6464 139.17C20.7578 138.683 20.1206 138.077 19.735 137.32V137.337ZM23.8262 137.875C24.3124 137.791 24.7986 137.522 25.2849 137.068C25.8382 136.53 26.3077 135.891 26.6598 135.201C27.297 134.024 27.582 133.015 27.5149 132.191C27.5149 131.804 27.3808 131.434 27.1796 131.115C26.9784 130.795 26.6933 130.526 26.3412 130.358C25.637 129.971 24.9328 129.988 24.2286 130.408C23.5076 130.829 22.8369 131.619 22.1997 132.796C21.8141 133.469 21.529 134.209 21.3781 134.983C21.2608 135.622 21.3111 136.177 21.4955 136.631C21.68 137.085 22.0321 137.455 22.468 137.674C22.8704 137.909 23.3567 137.976 23.8094 137.875H23.8262Z" fill="#FFF9ED"/>
<path d="M30.4995 142.299C30.03 141.441 30.03 140.297 30.5163 138.851L32.8637 131.955L34.8589 132.645L32.4445 139.759C32.1762 140.566 32.1594 141.189 32.4109 141.626C32.6457 142.046 33.0313 142.366 33.5008 142.517C33.9535 142.685 34.4398 142.669 34.8757 142.484C35.3117 142.299 35.6805 141.794 35.9488 140.97L38.3633 133.856L40.3586 134.545L38.0112 141.441C37.5249 142.887 36.8375 143.795 35.9656 144.199C35.0937 144.586 34.0877 144.603 32.9643 144.199C31.8073 143.795 30.9857 143.173 30.5163 142.315L30.4995 142.299Z" fill="#FFF9ED"/>
<path d="M50.6369 136.429L48.7757 147.832L48.608 147.798L44.2821 140.802L43.8965 140.079L43.7288 141.66L42.924 146.638L40.9622 146.318L42.8066 134.949L42.9743 134.983L47.2164 142.013L47.6523 142.837L47.82 141.29L48.6583 136.126L50.6201 136.446L50.6369 136.429Z" fill="#FFF9ED"/>
<path d="M60.1438 137.976C61.0325 138.885 61.502 140.264 61.5355 142.08C61.5523 143.257 61.3678 144.3 60.999 145.175C60.6469 146.015 60.06 146.722 59.2887 147.21C58.5342 147.697 57.612 147.95 56.5221 147.966L53.6214 148.017L53.437 136.681L56.3377 136.631C57.9809 136.597 59.2552 137.051 60.1438 137.96V137.976ZM58.2156 145.595C58.6683 145.208 59.0037 144.704 59.1713 144.132C59.3558 143.493 59.4564 142.82 59.4229 142.164C59.4061 141.02 59.1546 140.079 58.6516 139.339C58.1653 138.599 57.3773 138.245 56.2874 138.262H55.5329L55.667 146.2H56.4215C57.1593 146.184 57.7629 145.982 58.2156 145.612V145.595Z" fill="#FFF9ED"/>
<path d="M69.8688 145.208L65.895 145.814L65.5429 147.529L63.3128 147.865L66.3309 135.756H66.4986L72.9372 146.419L70.7575 146.739L69.9023 145.208H69.8688ZM69.0472 143.728L67.4208 140.852L67.0184 139.995L66.901 140.936L66.2303 144.165L69.0472 143.745V143.728Z" fill="#FFF9ED"/>
<path d="M78.2524 134.983L75.7541 135.706L78.3362 144.838L76.3242 145.41L73.742 136.278L71.2437 137.001L70.7407 135.235L77.7494 133.234L78.2524 135V134.983Z" fill="#FFF9ED"/>
<path d="M79.2752 132.561L81.2034 131.787L85.3617 142.315L83.4334 143.089L79.2752 132.561Z" fill="#FFF9ED"/>
<path d="M90.1403 139.591C89.2684 139.507 88.4301 139.137 87.7594 138.582C87.0216 137.976 86.3677 137.169 85.7976 136.11C85.2778 135.201 84.9257 134.192 84.7916 133.133C84.6742 132.258 84.8251 131.367 85.2108 130.576C85.5964 129.82 86.2168 129.197 87.0887 128.71C87.9941 128.205 88.866 128.003 89.7211 128.087C90.593 128.188 91.4146 128.541 92.0853 129.113C92.8734 129.803 93.5441 130.627 94.0135 131.552C94.5836 132.595 94.919 133.604 95.0196 134.545C95.1369 135.42 94.986 136.311 94.6004 137.102C94.2147 137.859 93.5944 138.481 92.7225 138.969C91.8506 139.44 90.9954 139.641 90.1403 139.574V139.591ZM92.8063 136.429C92.9907 135.975 93.0243 135.42 92.9237 134.764C92.7728 133.99 92.5045 133.25 92.1189 132.578C91.4817 131.4 90.7942 130.61 90.0732 130.223C89.7379 130.021 89.369 129.92 89.0002 129.92C88.6145 129.92 88.2456 130.021 87.9103 130.206C87.2228 130.593 86.854 131.199 86.8036 132.023C86.7533 132.847 87.0552 133.856 87.7091 135.033C88.0612 135.723 88.5307 136.362 89.084 136.917C89.5535 137.354 90.0397 137.623 90.526 137.707C91.0122 137.791 91.4985 137.707 91.9176 137.455C92.3368 137.236 92.6554 136.866 92.8231 136.429H92.8063Z" fill="#FFF9ED"/>
<path d="M99.2617 120.418L106.404 129.483L106.27 129.584L98.2221 128.104L97.434 127.902L98.4736 129.08L101.592 133.032L100.033 134.276L92.9237 125.245L93.0578 125.127L101.073 126.691L101.978 126.91L100.955 125.75L97.7191 121.646L99.2784 120.401L99.2617 120.418Z" fill="#FFF9ED"/>
<path d="M49.1781 65.2545C51.3243 64.8005 52.5819 66.7009 54.0071 66.0282C55.3484 65.4059 55.5161 63.2027 55.5329 62.9168C55.667 60.7136 54.1747 60.2595 53.2358 57.1986C52.3303 54.2555 53.1687 52.91 51.8776 51.8168C51.2237 51.2618 50.3853 51.1273 48.7254 50.8245C47.2667 50.5723 46.4115 50.4209 45.9756 50.8918C45.372 51.5309 46.3612 52.4391 46.1768 54.2386C45.9588 56.3577 44.3995 56.8286 44.4162 59.0823C44.4162 59.5364 44.4162 60.0914 44.7516 60.68C45.372 61.8236 46.3948 61.6218 46.9145 62.53C47.6188 63.7577 46.5792 65.6582 45.8079 66.5832C45.3887 67.0877 44.718 67.895 43.645 67.9454C42.9072 67.9791 41.9012 67.6595 41.6832 67.0205C41.3981 66.1123 42.9575 65.4732 42.9407 64.2118C42.924 63.0682 41.3311 63.1018 40.3754 61.3191C40.258 61.1005 40.2244 60.9827 39.6711 58.46C39.101 55.8532 38.9837 55.1805 38.598 55.1132C38.2124 55.0291 37.9106 55.5673 37.1728 56.425C36.368 57.3668 35.362 58.1405 34.4733 58.9982C31.5726 61.8236 29.9629 63.3877 28.5377 64.0941C31.8744 65.1704 35.1272 66.1459 37.7597 66.8186C41.2975 67.7436 44.869 68.4668 48.4907 68.9714C47.384 68.6182 46.6295 68.1304 46.5457 67.5754C46.4283 66.7345 47.8032 65.5741 49.1613 65.2882L49.1781 65.2545Z" fill="#FFF9ED"/>
<path d="M1.97853 67.9286C6.77394 68.7191 8.9872 68.8536 12.0891 70.0814C13.5143 70.6364 14.5036 71.225 16.4989 72.4023C16.4989 72.4023 17.0857 72.7386 18.9637 74.3868C19.0307 74.4373 19.081 74.4877 19.1313 74.5382C22.3674 74.4877 25.1005 73.1759 27.0287 72.3014C27.8335 71.9314 29.7114 71.0064 30.969 70.6532C31.0863 70.6195 31.2205 70.5859 31.4049 70.5354C27.9509 68.9882 23.7591 66.7009 17.4043 63.2364C16.3983 62.6814 6.52243 57.2827 6.97514 56.3745C7.12605 56.0718 8.40035 56.2232 9.00397 56.3409C9.67466 56.4586 10.3118 56.7109 10.8987 57.0641C11.67 57.5854 12.9946 58.2582 14.688 58.9814C14.3862 58.5273 14.0844 58.0059 13.7658 57.4173C10.6304 51.615 9.79203 45.2914 9.79203 45.2914C9.84233 45.2241 9.9094 45.1568 9.99323 45.0895C10.2447 45.0055 12.3574 50.5891 12.5754 51.1273C14.5204 56.1895 18.3936 59.385 20.6907 61.3191C19.7014 60.2091 18.8966 58.6618 18.4774 57.5854C17.9409 56.2232 17.857 55.1636 17.9409 49.7145C18.0415 42.8359 18.2092 42.5668 18.511 42.4323C20.456 41.6082 27.5988 48.2009 27.1796 55.3991C27.0454 57.72 26.1065 60.495 24.7483 61.8573C25.2011 61.79 25.637 61.6218 26.0227 61.3864C27.0958 60.7304 26.8107 60.0577 28.5042 57.6023C30.0971 55.2982 30.4492 55.7186 31.0528 54.4909C31.8073 52.9605 31.3546 50.6732 30.4324 46.0818C29.9797 43.845 29.6611 42.7854 28.7222 41.9445C27.9341 41.2382 27.0958 41.0195 26.1065 40.7673C22.5686 39.8927 20.8584 41.3559 19.3996 40.0609C18.796 39.5395 18.4104 38.6818 17.9576 37.7232C17.5888 36.9159 17.572 36.6468 17.6223 36.4282C17.7732 35.7386 18.4774 35.7723 19.2152 34.8809C19.8859 34.0736 19.6176 33.6868 20.2883 32.8964C20.7578 32.3414 21.244 32.1059 22.0321 31.7191C23.0716 31.1977 24.195 30.895 25.3352 30.8277C26.643 30.7436 26.7604 31.0632 27.6155 30.8109C28.3365 30.5923 28.7725 30.2223 29.3929 30.4073C29.4935 30.4409 29.9294 30.5586 30.1138 30.9455C30.2983 31.3155 30.0468 31.5845 30.1977 31.9882C30.2983 32.2909 30.5666 32.4759 31.1869 32.7786C31.757 33.0814 32.3606 33.3505 32.981 33.5355C34.3224 33.9727 35.0769 34.4773 35.5296 34.6959C38.2627 35.9573 44.5336 32.6777 51.995 32.0386C53.8729 31.8705 55.7509 31.8873 57.6288 32.0723C61.4182 32.4927 64.1512 33.6027 66.6495 34.6455C68.5945 35.4527 72.3671 37.0504 76.5086 40.1954C81.2034 43.7609 80.6836 44.9886 85.3114 48.655C89.2517 51.7832 92.9404 53.5154 95.4723 54.6927C102.548 57.9891 105.063 57.4341 108.249 60.865C111.083 63.9091 111.451 66.8691 111.518 67.4914C111.636 68.5677 111.921 71.2755 110.294 73.2936C107.628 76.59 102.011 75.3791 100.402 75.0259C99.0437 74.74 95.3214 73.9327 93.1919 70.7205C92.9404 70.3504 91.0122 67.3232 92.1692 65.3891C92.2362 65.2545 92.6386 64.5818 93.3932 64.3632C94.3656 64.0773 95.3214 64.6995 96.3274 65.3723C97.7023 66.2973 97.6017 66.7009 98.7419 67.2895C99.0772 67.4745 100.855 68.3995 101.659 67.6932C101.995 67.4073 102.095 66.8859 102.028 66.4486C101.827 65.3386 100.352 64.75 98.9599 64.2286C95.6735 62.9841 93.4602 62.2441 92.7392 61.975C89.2181 60.6968 86.8875 58.5777 84.909 56.7614C83.0981 55.1132 83.1819 54.7768 79.9123 51.5477C76.0391 47.7132 75.4187 47.6459 75.0499 47.7804C73.5911 48.3186 73.0378 52.8595 74.9325 55.9373C76.2571 58.1068 77.5649 57.5686 78.6045 59.6541C78.6045 59.6541 80.3986 63.3036 77.3973 68.5509C77.3302 68.6518 77.2799 68.7527 77.2128 68.8536C80.4154 68.6686 83.1652 68.7695 86.5521 69.7786C89.2684 70.6027 91.029 71.5614 91.4314 71.7968C94.8519 73.7477 95.3717 75.3455 99.9491 80.2732C104.359 85.0159 106.555 87.3705 109.171 89.2541C110.11 89.9268 110.797 90.3641 111.334 90.8518C113.128 85.2009 114.034 79.3145 114.017 73.3945C114.017 41.7091 88.4971 16.0277 57.0084 16.0277C27.4143 16.0445 3.11869 38.665 0.251508 67.6259C0.804824 67.7268 1.37491 67.8277 1.99529 67.9286H1.97853Z" fill="#FFF9ED"/>
<path d="M71.7635 67.0373C72.9372 66.6505 73.3061 66.9027 73.8091 66.5495C74.4295 66.0955 74.7145 65.0359 74.4462 64.3127C74.0271 63.2027 72.3503 63.1523 70.6066 62.6814C65.3417 61.2518 63.0781 56.8791 61.8373 57.72C61.4685 57.9723 61.4349 58.6786 61.4182 60.0914C61.3679 62.16 61.8373 62.8495 61.787 63.7914C61.6697 66.2804 57.9306 68.3659 55.1472 69.0555C54.2753 69.2741 53.3867 69.3918 52.4813 69.4086C52.8669 69.4423 53.1855 69.4759 53.437 69.4927C58.1318 69.8627 62.8601 69.9132 67.5549 69.6105C68.4939 69.56 69.3826 69.4927 70.2377 69.4423C70.0532 68.9041 70.0532 68.2818 70.3383 67.8277C70.6066 67.4073 71.0593 67.2559 71.7635 67.0373Z" fill="#FFF9ED"/>
<path d="M97.8867 88.8841C92.8901 81.215 90.2577 77.7673 86.1665 76.0518C85.7641 76.2032 85.1437 76.2873 84.4562 76.4386C83.7185 76.6068 82.9304 76.9432 81.7232 77.5486C82.2598 77.7336 82.7125 78.2045 83.1819 78.9445C83.9365 80.1386 85.8479 83.1491 84.5736 86.5632C84.0538 87.9759 83.2155 88.8336 82.3771 89.6745C79.8453 92.2141 75.7708 94.1986 74.6474 93.1895C74.0271 92.6345 74.8654 91.6927 75.402 88.0768C75.9553 84.4273 75.3181 84.0068 76.1397 81.9886C76.4583 81.2991 76.844 80.6432 77.3302 80.0545C76.1565 80.8955 75.0331 81.8036 73.9768 82.7791C70.0197 86.3109 65.2411 91.8441 62.9272 92.13C62.6254 92.1636 62.5583 92.0964 62.5416 92.0627C62.2565 91.6255 65.0566 89.7418 67.907 87.1686C71.1096 84.2927 70.4389 84.1245 73.4234 81.5177C75.3852 79.8191 77.4979 78.3055 79.7279 76.9768C82.3268 75.4464 82.6789 75.665 83.467 75.1773C82.3268 74.8914 81.1531 74.6559 79.9962 74.5045C77.4308 74.2018 74.8319 74.2691 72.2833 74.7232C71.9312 74.7736 71.512 74.8409 71.009 74.9082C70.5395 75.5473 68.8292 76.7245 66.2806 78.7259C63.229 81.1141 63.5979 81.0636 61.9715 82.2577C58.0815 85.1336 54.4262 86.6136 50.771 88.0768C49.9997 88.3795 47.3002 89.4727 44.2653 90.4482C44.0977 90.4986 40.5933 91.6086 38.2124 92.5L38.0782 92.5505C37.2399 92.8532 36.4351 93.0214 35.2614 93.1559C34.205 93.2736 33.5176 93.3577 33.1487 93.3073C32.3774 94.5014 29.9462 95.7795 28.6048 96.2841C21.2272 99.0927 10.9825 92.4159 11.3514 91.3395C11.4017 91.1714 11.67 91.2386 12.8269 91.02C15.0066 90.6164 16.3648 90.0109 17.3205 89.6577C19.7517 88.8 25.0166 87.7404 28.9401 89.1532C30.6504 89.7755 31.69 90.7173 32.8972 91.7768C33.0816 91.9282 33.2325 92.1132 33.3499 92.315C33.9032 91.9955 34.9931 91.7936 37.2567 91.1714C37.4914 91.1041 40.5095 90.28 42.3706 89.7418C44.869 89.0186 47.3337 88.1609 49.7314 87.135C51.492 86.3782 53.8059 85.3859 56.4551 83.6368C57.8467 82.7118 62.7931 79.3314 65.9118 76.3377C66.3309 75.9341 66.8172 75.5641 67.3202 75.2782C60.0432 75.8332 47.3673 75.9173 35.9488 72.3014C35.6638 72.2173 35.3955 72.1164 35.1105 72.0154C34.1044 72.3855 31.7235 72.6882 27.1796 73.8823C20.8919 75.5304 19.9865 75.48 19.6008 75.4968C19.4164 76.1527 18.2427 76.6741 17.7061 76.9095C13.2125 78.8605 8.60156 78.0532 8.60156 78.0532C4.97985 77.4141 2.48154 75.8164 0 74.0168C0.301809 105.349 25.5532 130.677 56.7401 130.812C55.9856 129.534 55.0131 128.239 54.1747 126.96C53.504 125.951 53.219 125.514 53.1687 124.925C53.1352 124.522 53.2525 124.37 53.4873 123.614C53.9065 122.319 54.1747 121.495 53.9568 121.242C53.722 120.973 53.1855 121.747 51.7938 121.982C50.989 122.1 50.1674 122.1 49.3626 122.016C48.9937 121.949 48.608 121.982 48.2392 122.1C47.9876 122.201 47.6523 122.319 47.5349 122.705C47.384 123.176 47.6858 123.58 47.602 124.303C47.5685 124.589 47.4679 124.858 47.3337 125.094C46.8475 126.288 47.6523 128.743 46.8642 129.332C46.7301 129.433 46.1768 129.332 45.9588 128.995C44.7516 127.263 45.875 122.79 45.4726 120.57C45.4055 120.2 45.2881 119.813 45.372 119.493C45.7408 118.232 48.0379 118.652 48.7925 117.576C49.4799 116.6 49.5973 114.195 48.7086 113.489C48.4068 113.254 47.9373 114.448 46.7804 115.575C45.5061 116.819 42.8066 117.778 41.4987 116.315C41.0125 115.776 40.9119 114.851 41.0125 114.38C41.1802 113.657 41.8676 113.792 42.9407 113.22C43.5276 112.9 43.9132 112.497 44.718 111.639C45.8079 110.479 46.2606 108.999 47.099 107.687C48.4571 105.585 50.8213 104.34 53.0346 103.348C54.7783 102.574 56.6898 102.187 58.5342 101.767C60.1774 101.38 61.8541 101.094 63.5308 100.909C65.392 100.724 67.2867 100.909 69.1311 100.741C70.7239 100.59 71.1934 100.455 72.015 100.741C72.451 100.892 72.9372 101.128 73.5576 100.976C74.1947 100.825 74.5804 100.371 74.7816 100.186C75.8379 99.16 77.6823 99.5132 78.9734 99.3114C80.5998 99.0591 82.2765 98.1173 83.8359 97.4445C86.4012 96.3345 86.4348 96.1327 87.2899 96.0991C88.9163 96.0486 90.4086 96.7886 91.7667 97.5791C92.6554 98.1004 93.4938 98.5377 93.9297 99.345C94.4495 100.287 94.6171 100.674 94.6171 100.674C94.8351 101.161 94.8519 101.313 95.0531 101.498C95.3214 101.733 95.5561 101.716 95.8915 102.053C96.1094 102.271 96.143 102.406 96.1262 102.49C96.0927 102.658 95.9585 102.692 95.8915 102.894C95.7909 103.196 96.0256 103.28 95.9418 103.516C95.8244 103.835 95.3381 103.785 95.0866 104.205C94.9525 104.424 95.0531 104.491 94.9022 104.828C94.8016 105.063 94.6507 105.265 94.483 105.45C93.9632 106.005 93.1081 105.585 91.6661 105.803C91.6326 105.803 91.6661 105.803 89.6205 106.459C88.2792 106.896 87.8767 106.997 87.3905 107.418C87.0887 107.687 86.5018 108.191 86.4515 108.847C86.4012 109.385 86.7366 109.57 86.9881 110.529C87.1222 111.101 87.1222 111.488 87.1725 111.723C87.4408 113.018 89.0002 113.691 90.1906 114.229C91.3811 114.784 93.2422 116.096 94.4998 115.272C94.8184 115.07 95.2543 114.633 95.7238 114.582C95.8412 114.582 95.9585 114.582 96.0759 114.616C96.1933 114.65 96.2939 114.717 96.3777 114.801C100.368 110.966 103.789 106.56 106.522 101.733C105.08 100.573 103.252 97.0745 97.87 88.8168L97.8867 88.8841Z" fill="#FFF9ED"/>
<path d="M93.2087 117.643C92.2362 118.013 91.75 117.71 90.6601 117.525C89.9559 117.408 89.8217 117.525 88.3295 117.374C86.0994 117.122 83.9197 116.634 81.807 115.911C80.8178 115.575 79.8956 115.188 78.856 115.675C78.1686 115.995 77.7494 116.55 77.4476 116.937C76.4415 118.282 76.0559 119.947 75.9218 121.612C75.8044 123.025 75.5864 126.019 76.7769 126.59C77.1458 126.775 77.7997 126.103 78.353 126.439C78.4033 126.473 78.4368 126.506 78.4871 126.54C83.8694 124.337 88.866 121.31 93.3428 117.576C93.2925 117.593 93.2422 117.61 93.2087 117.626V117.643Z" fill="#FFF9ED"/>
<path d="M74.2283 127.364C73.5408 124.606 72.7192 121.831 71.9815 119.073C71.4785 117.206 71.3443 116.97 71.1431 116.785C69.8185 115.575 66.616 116.853 65.1405 117.139C63.8326 117.391 61.9547 117.408 60.8816 118.131C59.4229 119.09 58.8528 122.033 57.9473 123.597C56.8407 125.48 56.3545 125.834 56.4718 126.809C56.6395 128.306 57.9306 130.644 59.3223 130.66C59.5402 130.66 59.6744 130.425 59.9929 130.475C60.1438 130.509 60.2948 130.576 60.4121 130.677C65.1908 130.391 69.9023 129.517 74.463 128.037C74.3792 127.818 74.3121 127.583 74.2618 127.347L74.2283 127.364Z" fill="#FFF9ED"/>
</svg>
