<svg width="80" height="64" viewBox="0 0 80 64" fill="none" xmlns="http://www.w3.org/2000/svg">
<path d="M31.3072 23.4915C35.8663 22.0619 38.0949 16.2238 36.285 10.4518C34.475 4.67978 29.3119 1.15957 24.7528 2.58918C20.1936 4.0188 17.965 9.85688 19.7749 15.6289C21.5849 21.4009 26.748 24.9211 31.3072 23.4915Z" fill="#FD8E3A"/>
<path d="M20.8226 36.8107C24.4509 33.702 24.2017 27.4579 20.2659 22.8643C16.33 18.2707 10.1981 17.067 6.56971 20.1758C2.94136 23.2845 3.19062 29.5286 7.12644 34.1222C11.0623 38.7158 17.1942 39.9195 20.8226 36.8107Z" fill="#FD8E3A"/>
<path d="M60.2206 15.6449C62.0305 9.87286 59.8019 4.03478 55.2428 2.60516C50.6836 1.17554 45.5205 4.69576 43.7105 10.4678C41.9006 16.2398 44.1292 22.0779 48.6884 23.5075C53.2475 24.9371 58.4106 21.4169 60.2206 15.6449Z" fill="#FD8E3A"/>
<path d="M72.8638 34.124C76.7996 29.5303 77.0488 23.2863 73.4205 20.1775C69.7921 17.0688 63.6602 18.2725 59.7243 22.8661C55.7885 27.4597 55.5393 33.7038 59.1676 36.8125C62.796 39.9213 68.9279 38.7176 72.8638 34.124Z" fill="#FD8E3A"/>
<path d="M39.6434 23.8125C46.9258 23.5641 52.9108 29.3927 52.911 36.624V36.6416C52.9111 37.4927 53.4939 38.238 54.328 38.4014C68.0623 41.1015 67.187 62.8575 51.6923 63.123V63.1201C48.829 63.0724 46.4662 62.289 44.6005 61.0293C41.8154 59.1465 38.1997 59.1501 35.3602 60.9512C28.0674 65.5815 15.998 62.1394 15.8036 50.625C15.9228 43.5943 20.4683 39.5727 25.6503 38.5615C26.5999 38.3775 27.2738 37.5469 27.2772 36.5801V36.4678C27.3589 29.672 32.851 24.0474 39.6434 23.8125ZM40.0829 34.8027C38.7654 34.8027 37.6994 35.8716 37.6991 37.1855V41.6289H33.1678C31.8536 41.6289 30.7841 42.6951 30.7841 44.0127C30.7842 45.3302 31.8537 46.3955 33.1678 46.3955H37.6991V50.8389C37.6991 52.1531 38.7687 53.2227 40.0829 53.2227C41.3969 53.2224 42.4657 52.1529 42.4657 50.8389V46.3955H46.8202C48.1343 46.3955 49.2039 45.3302 49.204 44.0127C49.204 42.6951 48.1344 41.6289 46.8202 41.6289H42.4657V37.1855C42.4654 35.8717 41.4001 34.803 40.0829 34.8027Z" fill="#FD8E3A"/>
</svg>
