<svg width="67" height="67" viewBox="0 0 67 67" fill="none" xmlns="http://www.w3.org/2000/svg">
<path d="M59.0124 0H7.98757C3.57736 0 0 3.57736 0 7.98757V59.0124C0 63.4226 3.57736 67 7.98757 67H59.0124C63.4226 67 67 63.4226 67 59.0124V7.98757C67 3.57736 63.4226 0 59.0124 0ZM22.4657 58.0847H17.5143C16.1544 58.0847 15.0544 56.9848 15.0544 55.6248C15.0544 54.2649 16.1544 53.165 17.5143 53.165H22.4657C23.8257 53.165 24.9256 54.2649 24.9256 55.6248C24.9256 56.9848 23.8257 58.0847 22.4657 58.0847ZM35.8966 58.0847H30.9452C29.5888 58.0847 28.4854 56.9848 28.4854 55.6248C28.4854 54.2649 29.5888 53.165 30.9452 53.165H35.8966C37.2566 53.165 38.3565 54.2649 38.3565 55.6248C38.3565 56.9848 37.2566 58.0847 35.8966 58.0847ZM49.3276 58.0847H44.3797C43.0197 58.0847 41.9198 56.9848 41.9198 55.6248C41.9198 54.2649 43.0197 53.165 44.3797 53.165H49.3276C50.6875 53.165 51.7874 54.2649 51.7874 55.6248C51.7874 56.9848 50.6875 58.0847 49.3276 58.0847ZM56.0325 41.3821C56.0325 45.2301 52.9014 48.3612 49.0499 48.3612H17.9501C14.0986 48.3612 10.9675 45.2301 10.9675 41.3821V15.3988C10.9675 11.5509 14.0986 8.4198 17.9501 8.4198H49.0499C52.9014 8.4198 56.0325 11.5509 56.0325 15.3988V41.3821ZM44.0248 31.4126L42.6859 29.3182L37.485 38.975C37.0528 39.7727 36.2199 40.2682 35.3203 40.2682C35.2711 40.2682 35.2254 40.2647 35.1762 40.2611C34.2204 40.2084 33.384 39.604 33.0326 38.7149L27.1816 23.9803L22.5887 31.3845C22.1389 32.1084 21.3482 32.5477 20.4978 32.5477H15.8873V41.3821C15.8873 42.5172 16.8115 43.4414 17.9501 43.4414H49.0499C50.1885 43.4414 51.1127 42.5172 51.1127 41.3821V32.5477H46.0946C45.2582 32.5477 44.4746 32.1225 44.0248 31.4126ZM49.0499 13.3396H17.9501C16.8115 13.3396 15.8873 14.2638 15.8873 15.3988V27.6279H19.1273L25.5757 17.2367C26.0641 16.446 26.9673 15.9997 27.8845 16.0806C28.8087 16.1649 29.6099 16.7623 29.9543 17.6233L35.6577 31.9924L40.3385 23.3021C40.7496 22.5325 41.5403 22.0405 42.4118 22.0089C43.2833 21.9737 44.1056 22.406 44.5765 23.1439L47.444 27.6279H51.1127V15.3988C51.1127 14.2638 50.1885 13.3396 49.0499 13.3396Z" fill="#FD8E3A"/>
</svg>
