<svg width="86" height="60" viewBox="0 0 86 60" fill="none" xmlns="http://www.w3.org/2000/svg">
<path d="M21.0827 43.3315V54.6709C21.0827 57.1991 19.032 59.2498 16.5038 59.2498C13.9756 59.2498 11.9248 57.1991 11.9248 54.6709V43.2432H16.9846C18.3517 43.2432 19.7189 43.2726 21.0827 43.3315Z" fill="#FD8E3A"/>
<path d="M47.464 5.87102C38.0641 9.20057 27.9708 10.9177 17.7696 10.9177H4.97143C2.22733 10.9177 3.8147e-06 12.7918 3.8147e-06 15.1009V34.6988C3.8147e-06 37.0078 2.22733 38.8819 4.97143 38.8819H16.9846C27.7026 38.8819 38.3094 40.6874 48.1869 44.1935L51.1141 45.2303V4.5791L47.464 5.87102ZM16.5038 27.1925H10.8423C9.57981 27.1925 8.55282 26.1688 8.55282 24.9031C8.55282 23.6373 9.57981 22.6136 10.8423 22.6136H16.5038C17.7663 22.6136 18.7933 23.6406 18.7933 24.9031C18.7933 26.1656 17.7663 27.1925 16.5038 27.1925Z" fill="#FD8E3A"/>
<path d="M61.1616 49.8091C58.6334 49.8091 56.5827 47.7584 56.5827 45.2302V4.57895C56.5827 2.05071 58.6334 0 61.1616 0C63.6899 0 65.7406 2.05071 65.7406 4.57895V45.2302C65.7406 47.7584 63.6899 49.8091 61.1616 49.8091Z" fill="#FD8E3A"/>
<path d="M83.1275 27.1961H76.4913C75.2256 27.1961 74.2019 26.1724 74.2019 24.9067C74.2019 23.6409 75.2256 22.6172 76.4913 22.6172H83.1275C84.3933 22.6172 85.417 23.6409 85.417 24.9067C85.417 26.1724 84.3933 27.1961 83.1275 27.1961Z" fill="#FD8E3A"/>
<path d="M72.1872 17.4685C71.6017 17.4685 71.0163 17.2461 70.5682 16.798C69.6753 15.9051 69.6753 14.4529 70.5682 13.56L75.2583 8.86987C76.1512 7.97697 77.6034 7.97697 78.4963 8.86987C79.3892 9.76276 79.3892 11.2149 78.4963 12.1078L73.8061 16.798C73.3581 17.2461 72.7726 17.4685 72.1872 17.4685Z" fill="#FD8E3A"/>
<path d="M76.8806 40.8073C76.2952 40.8073 75.7097 40.5849 75.2616 40.1369L70.5715 35.4467C69.6786 34.5538 69.6786 33.1016 70.5715 32.2087C71.4644 31.3158 72.9166 31.3158 73.8095 32.2087L78.4996 36.8989C79.3925 37.7918 79.3925 39.244 78.4996 40.1369C78.0515 40.5849 77.4661 40.8073 76.8806 40.8073Z" fill="#FD8E3A"/>
</svg>
