<svg width="77" height="56" viewBox="0 0 77 56" fill="none" xmlns="http://www.w3.org/2000/svg">
<path d="M63.3359 33.501V41.0795C63.3359 45.8973 54.4104 50.8744 47.2394 54.1C41.6096 56.6283 35.1774 56.6283 29.5476 54.1C22.3766 50.8744 13.4511 45.8973 13.4511 41.0795V33.501L32.7287 42.4265C36.3078 44.0823 40.4792 44.0823 44.0583 42.4265L63.3359 33.501Z" fill="#FD8E3A"/>
<path d="M71.8508 29.5566V37.4696C71.8508 38.7019 70.8509 39.6985 69.6218 39.6985C68.3927 39.6985 67.3928 38.7019 67.3928 37.4696V31.6232L71.8508 29.5566Z" fill="#FD8E3A"/>
<path d="M73.462 24.257L44.0552 37.4717C40.4793 39.0798 36.3047 39.0798 32.7288 37.4717L3.32199 24.257C-1.10733 22.2668 -1.10733 16.4109 3.32199 14.4208L32.7288 1.20604C36.3047 -0.402014 40.4793 -0.402014 44.0552 1.20604L73.462 14.4208C77.8913 16.4109 77.8913 22.2668 73.462 24.257Z" fill="#FD8E3A"/>
</svg>
