<svg width="53" height="76" viewBox="0 0 53 76" fill="none" xmlns="http://www.w3.org/2000/svg">
<path d="M51.7766 10.4083C51.0224 9.65996 49.9797 9.19438 48.8293 9.19438C46.5249 9.19438 44.6585 11.0498 44.6585 13.3329V37.1808C44.6585 37.3877 44.5716 37.5774 44.4361 37.7154C44.2971 37.8499 44.1059 37.9361 43.8974 37.9361C43.4768 37.9361 43.1362 37.5981 43.1362 37.1808V8.21839C43.1362 7.07341 42.6705 6.03879 41.9163 5.29042C41.169 4.55239 40.1437 4.09026 39.0037 4.07992C36.689 4.05922 34.7948 6.07328 34.7948 8.37014V37.1843C34.7948 37.3912 34.7079 37.5809 34.5723 37.7154C34.4333 37.8499 34.2421 37.9361 34.0336 37.9361C33.613 37.9361 33.2759 37.5981 33.2759 37.1843V4.13854C33.2759 2.99702 32.8067 1.9624 32.0525 1.21057C31.3018 0.469096 30.2695 0.00696791 29.133 7.04512e-05C26.8217 -0.0137245 24.9344 2.00033 24.9344 4.29374V37.0325C24.9344 37.2843 24.8302 37.5084 24.6668 37.6705C24.5035 37.8326 24.2741 37.9361 24.0204 37.9361C23.5164 37.9361 23.1097 37.5326 23.1097 37.0325V8.08044C23.1097 5.8698 21.3024 4.07992 19.078 4.07992H18.7965C16.5721 4.07992 14.7683 5.8698 14.7683 8.08044V53.2553C14.7683 53.2829 14.7335 53.3002 14.7127 53.2795L13.4649 51.0964C13.4649 51.0964 9.97541 40.3743 9.10999 37.7188C8.94663 37.2153 8.70334 36.7394 8.34883 36.3428C7.43127 35.3185 6.12096 34.7564 4.7759 34.7564C3.96608 34.7564 3.14584 34.9633 2.39163 35.3944C0.295837 36.5945 -0.53831 39.1328 0.354922 41.2917C0.563459 41.7952 0.77547 42.2953 0.935348 42.816L5.46407 57.5318C8.61645 67.771 17.7712 75.1961 28.5421 75.8273C28.8028 75.8411 29.0669 75.8514 29.3276 75.8618C29.776 75.8755 30.2174 75.8859 30.6622 75.9204C34.124 76.1687 53 76.7929 53 60.7011V13.3329C53 12.1913 52.5343 11.1567 51.7766 10.4083ZM29.8281 44.6404C29.8281 43.3058 30.9194 42.2263 32.261 42.2263C33.6026 42.2263 34.694 43.3058 34.694 44.6404V61.3461C34.694 62.6807 33.6061 63.7602 32.261 63.7602C30.916 63.7602 29.8281 62.6807 29.8281 61.3461V44.6404ZM32.261 71.0577C30.9055 71.0577 29.8038 69.9644 29.8038 68.6194C29.8038 67.2744 30.9055 66.1812 32.261 66.1812C33.6165 66.1812 34.7183 67.271 34.7183 68.6194C34.7183 69.9679 33.62 71.0577 32.261 71.0577Z" fill="#FD8E3A"/>
</svg>
