<svg width="72" height="39" viewBox="0 0 72 39" fill="none" xmlns="http://www.w3.org/2000/svg">
<path d="M71.1711 16.9302C61.4481 5.64542 48.7068 0 35.9625 0C23.2181 0 10.4798 5.64542 0.753826 16.9302C-0.251275 18.1039 -0.251275 19.9997 0.753826 21.1733C10.4798 32.4582 23.2212 38.1036 35.9625 38.1036C48.7038 38.1036 61.4481 32.4582 71.1711 21.1733C71.6767 20.5835 71.9295 19.8192 71.9295 19.0518C71.9295 18.2844 71.6767 17.5171 71.1711 16.9302ZM35.9655 33.4964C27.8615 33.4964 21.2952 26.9301 21.2952 18.8261C21.2952 10.7221 27.8615 4.15583 35.9655 4.15583C44.0695 4.15583 50.6357 10.7251 50.6357 18.8261C50.6357 26.9271 44.0665 33.4964 35.9655 33.4964Z" fill="#FD8E3A"/>
<path d="M43.2178 18.8244C43.2178 22.8298 39.9708 26.0768 35.9655 26.0768C32.7004 26.0768 29.9379 23.9162 29.0291 20.946C29.3811 21.0002 29.7392 21.0272 30.1064 21.0272C34.1117 21.0272 37.3588 17.7802 37.3588 13.7749C37.3588 13.0376 37.2474 12.3244 37.0428 11.6533C40.5366 12.1739 43.2178 15.1862 43.2178 18.8244Z" fill="#FD8E3A"/>
</svg>
