<svg width="460" height="461" viewBox="0 0 460 461" fill="none" xmlns="http://www.w3.org/2000/svg">
<path d="M95.3263 161.64C95.3263 72.3688 167.695 6.32669e-06 256.967 1.4131e-05C259.863 1.43843e-05 262.212 2.34827 262.212 5.24498C262.212 8.1417 259.863 10.4899 256.967 10.4899C173.489 10.4899 105.816 78.1623 105.816 161.64C105.816 245.118 173.489 312.791 256.967 312.791L256.967 323.281C167.695 323.281 95.3263 250.912 95.3263 161.64Z" fill="white"/>
<path d="M166.371 212.182C200.123 231.669 211.688 274.828 192.201 308.58C158.448 289.093 146.884 245.934 166.371 212.182ZM170.621 228.044C162.736 251.05 169.619 276.736 187.95 292.716C195.835 269.711 188.953 244.025 170.621 228.044Z" fill="white"/>
<path d="M207.523 236.977C245.169 247.064 267.51 285.759 257.422 323.405C219.776 313.318 197.436 274.623 207.523 236.977ZM215.734 251.198C214.071 275.461 227.368 298.49 249.211 309.182C250.873 284.92 237.577 261.89 215.734 251.198Z" fill="white"/>
<path d="M168.735 155.918C178.822 193.564 156.481 232.259 118.835 242.347C108.748 204.701 131.089 166.005 168.735 155.918ZM160.524 170.14C138.68 180.831 125.385 203.861 127.047 228.124C148.89 217.432 162.186 194.402 160.524 170.14Z" fill="white"/>
<path d="M183.185 110.288C173.098 147.934 134.402 170.275 96.7562 160.188C106.843 122.542 145.539 100.201 183.185 110.288ZM168.963 118.499C144.7 116.837 121.671 130.133 110.979 151.976C135.242 153.638 158.271 140.342 168.963 118.499Z" fill="white"/>
<path d="M71.0088 65.3252C51.5218 99.0776 63.0862 142.237 96.8387 161.724C116.326 127.971 104.761 84.8122 71.0088 65.3252ZM75.2591 81.1877C93.5908 97.1683 100.473 122.854 92.588 145.86C74.2566 129.879 67.3736 104.193 75.2591 81.1877Z" fill="white"/>
<path d="M30.0027 178.95C40.0899 216.596 78.7853 238.937 116.431 228.85C106.344 191.204 67.6486 168.863 30.0027 178.95ZM44.2246 187.161C68.4871 185.499 91.5163 198.795 102.208 220.638C77.9457 222.3 54.9161 209.004 44.2246 187.161Z" fill="white"/>
<path d="M67.1942 286.877C94.753 314.436 139.435 314.436 166.993 286.877C139.435 259.318 94.753 259.318 67.1942 286.877ZM83.6163 286.877C103.797 273.306 130.389 273.306 150.57 286.877C130.389 300.448 103.797 300.448 83.6163 286.877Z" fill="white"/>
<path d="M132.041 343.864C165.794 363.351 208.953 351.787 228.44 318.034C194.687 298.547 151.528 310.112 132.041 343.864ZM147.904 339.614C163.884 321.282 189.57 314.4 212.576 322.285C196.595 340.616 170.909 347.499 147.904 339.614Z" fill="white"/>
<path d="M274.654 53.059C272.626 51.3601 269.721 51.1542 267.467 52.5772C254.461 60.791 245.617 69.7808 239.95 79.1655C237.97 78.0988 235.473 78.169 233.514 79.5574C212.76 94.2629 179.002 135.7 198.393 191.896C198.768 192.984 199.422 193.897 200.245 194.586C198.691 196.217 197.212 197.958 195.84 199.809C186.839 211.95 182.696 228.539 191.182 248.842C206.929 286.513 234.733 312.912 247.06 321.663C248.567 322.733 250.478 323.063 252.256 322.562C254.035 322.06 255.491 320.781 256.218 319.082C267.782 292.024 278.864 282.874 286.451 280.647C293.573 278.558 299.765 282.073 303.545 286.749C308.742 293.21 314.385 297.32 320.347 299.247C326.356 301.189 332.153 300.738 337.293 298.986C346.398 295.882 353.652 288.66 357.996 282.641C370.021 277.751 376.699 270.126 379.439 264.501C383.893 262.132 387.288 259.228 389.617 255.819C392.354 251.814 393.358 247.499 393.248 243.394C393.04 235.614 388.875 228.703 385.363 224.673C381.227 219.391 371.782 203.516 368.759 184.093C366.746 171.157 365.377 164.203 364.046 159.812C362.582 154.982 361.036 152.977 359.628 150.69C358.625 149.062 356.306 146.485 353.912 143.927C351.305 141.141 347.978 137.726 344.427 134.147C337.318 126.982 329.198 119.042 323.888 113.915L323.72 113.76C323.664 113.709 323.607 113.66 323.548 113.611C323.387 113.477 323.227 113.345 323.066 113.214C331.246 103.725 333.372 90.0911 332.985 78.0945C332.575 65.3994 329.302 52.7693 325.309 45.2314L325.145 44.9415C324.291 43.5208 322.892 42.5037 321.266 42.1332C319.532 41.7381 317.711 42.1183 316.28 43.1742L285.654 65.7708C282.247 60.7619 278.456 56.5152 274.848 53.2273L274.654 53.059ZM301.228 115.814C301.643 115.792 302.222 115.813 302.996 115.949C305.489 116.389 309.692 118.026 315.567 122.872C320.839 127.964 328.796 135.746 335.75 142.755C339.267 146.301 342.498 149.62 344.987 152.28C346.234 153.612 347.264 154.746 348.037 155.642C348.423 156.089 348.722 156.451 348.941 156.73C349.181 157.035 349.245 157.14 349.219 157.098C350.852 159.75 351.434 160.341 352.348 163.358C353.396 166.815 354.656 172.961 356.681 185.973C360.102 207.949 370.686 225.813 375.845 232.345C375.915 232.434 375.988 232.521 376.063 232.606C378.557 235.427 380.924 239.773 381.03 243.722C381.078 245.536 380.66 247.263 379.526 248.923C379.518 248.934 379.51 248.945 379.502 248.956C378.256 244.927 375.718 240.153 370.62 237.489C367.629 235.926 363.936 237.084 362.372 240.075C360.809 243.067 361.967 246.76 364.959 248.323C366.078 248.908 367.167 250.281 367.901 252.815C368.519 254.95 368.669 257.229 368.611 258.807C367.676 260.96 363.789 266.911 354.008 271.061C349.351 269.383 342.925 267.613 337.029 265.975C329.626 263.918 323.055 262.064 319.652 260.568C316.563 259.209 312.956 260.612 311.598 263.702C310.239 266.792 311.642 270.398 314.732 271.757C319.146 273.698 326.793 275.818 333.757 277.753C337.306 278.739 340.718 279.687 343.721 280.581C340.724 283.537 337.134 286.126 333.349 287.416C330.314 288.451 327.243 288.629 324.107 287.616C320.928 286.589 317.15 284.163 313.062 279.077L313.051 279.064C307.398 272.071 296.499 264.96 283.009 268.918C271.162 272.394 259.292 283.937 248.246 307.046C235.637 296.271 214.933 273.969 202.46 244.128C195.722 228.008 199.088 215.954 205.66 207.089C212.516 197.841 223.157 191.759 230.86 189.099C231.071 189.026 231.278 188.942 231.48 188.847C236.159 186.632 242.906 182.416 248.123 176.722C252.142 172.334 255.849 166.361 256.071 159.389C256.384 159.323 256.696 159.234 257.004 159.116C267.632 155.051 290.423 141.059 301.228 115.814ZM322.008 167.15C317.368 168.005 313.285 169.816 310.618 171.433L310.105 171.753L309.738 172.007C307.965 173.335 307.039 175.532 307.351 177.749C309.887 195.775 323.987 202.651 331.228 203.804C332.332 203.979 333.456 203.846 334.481 203.431C334.632 203.512 334.828 203.627 335.068 203.795C336.395 204.722 337.785 206.278 338.606 207.444C339.764 209.089 341.658 210.06 343.67 210.038C345.682 210.016 347.555 209.005 348.677 207.335C351.75 202.762 350.434 197.451 349.344 194.493C348.318 191.713 346.804 189.14 345.493 187.279L341.785 173.361C341.368 171.795 340.345 170.459 338.942 169.647C333.188 166.314 326.973 166.234 322.008 167.15ZM320.455 180.226C321.596 179.8 322.877 179.419 324.225 179.171C326.559 178.74 328.77 178.759 330.727 179.335L333.847 191.046C333.142 191.075 332.421 191.182 331.689 191.381C328.274 190.329 322.879 187.171 320.455 180.226ZM233.167 95.6081C231.702 101.719 231.329 107.724 231.655 113.453C232.21 123.198 234.786 132.17 237.388 139.57C238.687 143.261 240.03 146.663 241.128 149.514C242.267 152.47 243.09 154.7 243.546 156.412C244.535 160.126 243.051 164.163 239.11 168.464C235.32 172.602 230.151 175.911 226.501 177.676C221.453 179.459 215.381 182.414 209.507 186.601C195.579 144.385 215.767 111.786 233.167 95.6081ZM269.959 65.5942C277.215 73.454 284.071 85.2225 284.681 98.3394C285.343 112.559 278.718 129.994 253.288 147.092C253.042 146.439 252.79 145.779 252.535 145.118C251.392 142.151 250.14 138.985 248.919 135.513C246.483 128.587 244.32 120.853 243.859 112.757C243.402 104.73 244.618 96.3774 248.945 88.0902C252.812 80.6832 259.329 73.0157 269.959 65.5942ZM317.231 57.6616C319.066 63.3763 320.52 70.8101 320.768 78.4881C321.136 89.8848 318.803 100.08 313.091 106.024C312.959 106.161 312.836 106.304 312.719 106.45C310.001 105.145 307.465 104.324 305.116 103.911C302.112 103.382 299.25 103.51 296.797 104.266C296.963 102.086 296.991 99.9189 296.891 97.7714C296.534 90.0984 294.552 82.9305 291.676 76.5117C291.724 76.478 291.774 76.4453 291.822 76.41L317.231 57.6616Z" fill="white"/>
<path d="M336.771 199.156L338.261 183.67L334.528 176.055L315.586 181.489L336.771 199.156Z" fill="white"/>
<path d="M437.379 417.168C438.53 415.614 439.94 414.434 441.609 413.628C443.279 412.765 445.005 412.333 446.79 412.333C450.877 412.333 454.1 413.571 456.46 416.046C458.82 418.463 460 422.234 460 427.356V444.97C460 445.718 459.626 446.092 458.878 446.092H451.193C450.445 446.092 450.071 445.718 450.071 444.97V428.393C450.071 425.745 449.438 423.932 448.171 422.953C446.963 421.975 445.581 421.485 444.027 421.485C442.473 421.485 441.091 421.975 439.883 422.953C438.674 423.932 438.069 425.716 438.069 428.306V444.97C438.069 445.718 437.695 446.092 436.947 446.092H429.349C428.601 446.092 428.227 445.718 428.227 444.97V414.233C428.227 413.484 428.601 413.11 429.349 413.11H429.781C431.795 413.11 433.407 413.427 434.616 414.06C435.882 414.636 436.803 415.672 437.379 417.168Z" fill="white"/>
<path d="M405.167 446.956C399.929 446.956 395.727 445.373 392.561 442.207C389.453 438.984 387.899 434.753 387.899 429.515C387.899 424.277 389.424 420.075 392.475 416.909C395.583 413.743 399.756 412.16 404.994 412.16C410.29 412.16 414.492 413.743 417.6 416.909C420.708 420.075 422.262 424.277 422.262 429.515C422.262 434.753 420.737 438.984 417.686 442.207C414.636 445.373 410.462 446.956 405.167 446.956ZM404.994 437.631C406.779 437.631 408.39 437.084 409.829 435.991C411.268 434.839 411.988 432.738 411.988 429.688C411.988 426.694 411.268 424.594 409.829 423.385C408.448 422.176 406.865 421.572 405.081 421.572C403.296 421.572 401.684 422.176 400.245 423.385C398.806 424.594 398.087 426.694 398.087 429.688C398.087 432.738 398.778 434.839 400.159 435.991C401.598 437.084 403.21 437.631 404.994 437.631Z" fill="white"/>
<path d="M371.469 404.562C371.469 402.951 371.987 401.627 373.023 400.591C374.117 399.497 375.441 398.95 376.995 398.95C378.491 398.95 379.729 399.497 380.707 400.591C381.744 401.627 382.262 402.951 382.262 404.562C382.262 406.174 381.744 407.498 380.707 408.534C379.729 409.57 378.491 410.088 376.995 410.088C375.441 410.088 374.117 409.57 373.023 408.534C371.987 407.498 371.469 406.174 371.469 404.562ZM371.987 444.97V414.233C371.987 413.484 372.361 413.11 373.109 413.11H373.541C376.247 413.11 378.29 413.743 379.671 415.01C381.11 416.276 381.83 418.463 381.83 421.572V444.97C381.83 445.718 381.456 446.092 380.707 446.092H373.109C372.361 446.092 371.987 445.718 371.987 444.97Z" fill="white"/>
<path d="M348.817 421.917H343.118C342.37 421.917 341.996 421.543 341.996 420.795V414.233C341.996 413.484 342.37 413.11 343.118 413.11H348.817V402.663C348.817 401.915 349.162 401.541 349.853 401.541H350.285C353.047 401.541 355.12 402.174 356.501 403.44C357.94 404.706 358.66 406.894 358.66 410.002V413.11H365.74C366.488 413.11 366.862 413.484 366.862 414.233V420.795C366.862 421.543 366.488 421.917 365.74 421.917H358.66V444.97C358.66 445.718 358.285 446.092 357.537 446.092H349.853C349.162 446.092 348.817 445.718 348.817 444.97V421.917Z" fill="white"/>
<path d="M327.596 442.38C326.503 443.761 325.121 444.855 323.452 445.661C321.783 446.467 319.941 446.869 317.926 446.869C314.645 446.869 311.911 446.092 309.724 444.538C307.537 442.927 305.867 440.797 304.716 438.149C303.622 435.501 303.076 432.566 303.076 429.342C303.076 426.119 303.68 423.212 304.889 420.622C306.098 417.974 307.824 415.902 310.069 414.405C312.314 412.851 314.991 412.074 318.099 412.074C320.747 412.074 322.905 412.535 324.574 413.456C326.301 414.377 327.654 415.384 328.633 416.477C329.266 415.269 330.187 414.405 331.395 413.887C332.662 413.369 334.187 413.11 335.971 413.11H336.403C337.151 413.11 337.526 413.484 337.526 414.233V444.97C337.526 445.718 337.151 446.092 336.403 446.092H328.719C327.971 446.092 327.596 445.718 327.596 444.97V442.38ZM320.603 437.631C321.351 437.631 322.272 437.458 323.366 437.113C324.459 436.71 325.438 435.933 326.301 434.782C327.165 433.573 327.596 431.789 327.596 429.429C327.596 427.069 327.165 425.342 326.301 424.248C325.495 423.155 324.546 422.464 323.452 422.176C322.358 421.831 321.409 421.658 320.603 421.658C319.855 421.658 318.905 421.831 317.754 422.176C316.602 422.464 315.566 423.155 314.645 424.248C313.724 425.342 313.264 427.069 313.264 429.429C313.264 431.789 313.696 433.573 314.559 434.782C315.48 435.933 316.516 436.71 317.667 437.113C318.876 437.458 319.855 437.631 320.603 437.631Z" fill="white"/>
<path d="M287.209 416.391V399.209C287.209 398.461 287.583 398.087 288.331 398.087H288.763C291.526 398.087 293.598 398.72 294.979 399.986C296.418 401.253 297.138 403.44 297.138 406.548V444.97C297.138 445.718 296.764 446.092 296.015 446.092H288.331C287.583 446.092 287.209 445.718 287.209 444.97V442.38C286.115 443.761 284.733 444.855 283.064 445.661C281.395 446.467 279.553 446.869 277.538 446.869C274.257 446.869 271.523 446.092 269.336 444.538C267.149 442.927 265.479 440.797 264.328 438.149C263.235 435.501 262.688 432.566 262.688 429.342C262.688 426.119 263.263 423.212 264.415 420.622C265.623 417.974 267.379 415.902 269.681 414.405C271.984 412.851 274.804 412.074 278.143 412.074C280.33 412.074 282.143 412.477 283.582 413.283C285.079 414.031 286.288 415.067 287.209 416.391ZM280.215 437.631C280.963 437.631 281.884 437.458 282.978 437.113C284.071 436.71 285.05 435.933 285.913 434.782C286.777 433.573 287.209 431.789 287.209 429.429C287.209 427.069 286.777 425.342 285.913 424.248C285.108 423.155 284.158 422.464 283.064 422.176C281.971 421.831 281.021 421.658 280.215 421.658C279.467 421.658 278.517 421.831 277.366 422.176C276.214 422.464 275.178 423.155 274.257 424.248C273.336 425.342 272.876 427.069 272.876 429.429C272.876 431.789 273.308 433.573 274.171 434.782C275.092 435.933 276.128 436.71 277.279 437.113C278.488 437.458 279.467 437.631 280.215 437.631Z" fill="white"/>
<path d="M234.259 417.168C235.41 415.614 236.82 414.434 238.489 413.628C240.159 412.765 241.885 412.333 243.67 412.333C247.757 412.333 250.98 413.571 253.34 416.046C255.7 418.463 256.88 422.234 256.88 427.356V444.97C256.88 445.718 256.506 446.092 255.758 446.092H248.073C247.325 446.092 246.951 445.718 246.951 444.97V428.393C246.951 425.745 246.318 423.932 245.051 422.953C243.843 421.975 242.461 421.485 240.907 421.485C239.353 421.485 237.971 421.975 236.763 422.953C235.554 423.932 234.949 425.716 234.949 428.306V444.97C234.949 445.718 234.575 446.092 233.827 446.092H226.229C225.481 446.092 225.107 445.718 225.107 444.97V414.233C225.107 413.484 225.481 413.11 226.229 413.11H226.661C228.675 413.11 230.287 413.427 231.496 414.06C232.762 414.636 233.683 415.672 234.259 417.168Z" fill="white"/>
<path d="M202.203 446.956C198.404 446.956 195.325 446.236 192.965 444.797C190.662 443.301 188.993 441.229 187.957 438.581C186.921 435.933 186.403 432.911 186.403 429.515V414.233C186.403 413.484 186.777 413.11 187.525 413.11H187.957C190.662 413.11 192.706 413.743 194.087 415.01C195.526 416.276 196.246 418.463 196.246 421.572V430.896C196.246 433.544 196.85 435.357 198.059 436.336C199.268 437.314 200.649 437.804 202.203 437.804C203.757 437.804 205.139 437.314 206.348 436.336C207.614 435.357 208.247 433.573 208.247 430.983V414.233C208.247 413.484 208.621 413.11 209.37 413.11H209.801C212.564 413.11 214.636 413.743 216.018 415.01C217.457 416.276 218.176 418.463 218.176 421.572V430.119C218.176 435.242 216.939 439.329 214.464 442.38C211.989 445.43 207.902 446.956 202.203 446.956Z" fill="white"/>
<path d="M162.632 427.011V444.97C162.632 445.718 162.257 446.092 161.509 446.092H153.652C152.904 446.092 152.53 445.718 152.53 444.97V399.209C152.53 398.461 152.904 398.087 153.652 398.087H176.014C180.044 398.087 182.058 400.015 182.058 403.872V406.03C182.058 407.009 181.598 407.498 180.677 407.498H162.632V417.686H173.942C177.971 417.686 179.986 419.615 179.986 423.471V425.543C179.986 426.522 179.526 427.011 178.605 427.011H162.632Z" fill="white"/>
<path d="M118.348 434.695L112.217 444.97C111.699 445.718 111.095 446.092 110.404 446.092H102.72C102.432 446.092 102.231 445.977 102.116 445.747C102 445.459 102.029 445.2 102.202 444.97L112.217 428.824L103.238 414.233C103.065 413.945 103.008 413.686 103.065 413.456C103.18 413.225 103.411 413.11 103.756 413.11H107.382C109.052 413.11 110.375 413.254 111.354 413.542C112.332 413.83 113.225 414.405 114.031 415.269C114.836 416.132 115.786 417.485 116.88 419.327L118.607 422.176L123.528 414.233C124.046 413.484 124.708 413.11 125.514 413.11H132.766C133.112 413.11 133.342 413.225 133.457 413.456C133.572 413.686 133.544 413.945 133.371 414.233L124.909 428.22L135.184 444.97C135.357 445.2 135.357 445.459 135.184 445.747C135.069 445.977 134.867 446.092 134.58 446.092H126.55C125.629 446.092 124.938 445.718 124.478 444.97L118.348 434.695Z" fill="white"/>
<path d="M75.0679 417.168C76.2191 415.614 77.6293 414.434 79.2986 413.628C80.9678 412.765 82.6947 412.333 84.479 412.333C88.5658 412.333 91.7892 413.571 94.1492 416.046C96.5092 418.463 97.6892 422.234 97.6892 427.356V444.97C97.6892 445.718 97.315 446.092 96.5668 446.092H88.8824C88.1341 446.092 87.76 445.718 87.76 444.97V428.393C87.76 425.745 87.1268 423.932 85.8605 422.953C84.6517 421.975 83.2703 421.485 81.7161 421.485C80.162 421.485 78.7806 421.975 77.5718 422.953C76.363 423.932 75.7586 425.716 75.7586 428.306V444.97C75.7586 445.718 75.3845 446.092 74.6362 446.092H67.0382C66.2899 446.092 65.9158 445.718 65.9158 444.97V414.233C65.9158 413.484 66.2899 413.11 67.0382 413.11H67.4699C69.4845 413.11 71.0962 413.427 72.305 414.06C73.5713 414.636 74.4923 415.672 75.0679 417.168Z" fill="white"/>
<path d="M39.5724 446.956L27.571 414.233C27.4559 413.945 27.4559 413.686 27.571 413.456C27.7437 413.225 27.9452 413.11 28.1754 413.11H30.2476C32.2622 413.11 33.8451 413.369 34.9963 413.887C36.2051 414.348 37.2124 415.182 38.0183 416.391C38.8241 417.6 39.6012 419.327 40.3495 421.572L45.0119 435.041L52.0055 414.233C52.2357 413.484 52.6962 413.11 53.3869 413.11H61.1576C61.4454 413.11 61.6181 413.225 61.6756 413.456C61.7908 413.686 61.7908 413.945 61.6756 414.233L50.624 445.488C49.6455 448.308 48.5231 450.87 47.2567 453.172C46.048 455.532 44.5514 457.403 42.767 458.784C40.9826 460.166 38.709 460.857 35.9461 460.857C33.8164 460.857 32.0608 460.396 30.6793 459.475C29.2979 458.612 28.2618 457.518 27.571 456.194C26.9379 454.87 26.6213 453.604 26.6213 452.395C26.6213 451.935 26.7076 451.503 26.8803 451.1C27.053 450.755 27.3408 450.582 27.7437 450.582C28.0315 450.582 28.2905 450.668 28.5208 450.841C30.19 451.935 31.8017 452.482 33.3559 452.482C34.9676 452.482 36.2339 451.992 37.1549 451.014C38.0758 450.093 38.8817 448.74 39.5724 446.956Z" fill="white"/>
<path d="M10.1019 436.768H21.4989C25.5281 436.768 27.5427 438.667 27.5427 442.466V444.625C27.5427 445.603 27.0822 446.092 26.1613 446.092H1.12243C0.374143 446.092 0 445.718 0 444.97V399.209C0 398.461 0.374143 398.087 1.12243 398.087H1.98584C4.69118 398.087 6.7058 398.749 8.02969 400.073C9.41115 401.339 10.1019 403.584 10.1019 406.807V436.768Z" fill="white"/>
</svg>
