<svg width="296" height="205" viewBox="0 0 296 205" fill="none" xmlns="http://www.w3.org/2000/svg">
<path d="M72.8934 149.813V189.019C72.8934 197.76 65.8032 204.85 57.0619 204.85C48.3207 204.85 41.2305 197.76 41.2305 189.019V149.508H58.7242C63.4511 149.508 68.1779 149.61 72.8934 149.813Z" fill="#767D4E"/>
<path d="M164.104 20.2998C131.605 31.8115 96.7076 37.7483 61.4374 37.7483H17.1884C7.70087 37.7483 0 44.2279 0 52.2114V119.97C0 127.954 7.70087 134.433 17.1884 134.433H58.7234C95.7803 134.433 132.453 140.675 166.603 152.798L176.724 156.382V15.833L164.104 20.2998ZM57.0611 94.0178H37.4866C33.1217 94.0178 29.5709 90.4783 29.5709 86.1021C29.5709 81.7258 33.1217 78.1863 37.4866 78.1863H57.0611C61.4261 78.1863 64.9768 81.7371 64.9768 86.1021C64.9768 90.467 61.4261 94.0178 57.0611 94.0178Z" fill="#767D4E"/>
<path d="M211.462 172.212C202.721 172.212 195.631 165.122 195.631 156.381V15.8315C195.631 7.09023 202.721 0 211.462 0C220.204 0 227.294 7.09023 227.294 15.8315V156.381C227.294 165.122 220.204 172.212 211.462 172.212Z" fill="#767D4E"/>
<path d="M287.409 94.0297H264.465C260.088 94.0297 256.549 90.4902 256.549 86.114C256.549 81.7377 260.088 78.1982 264.465 78.1982H287.409C291.785 78.1982 295.325 81.7377 295.325 86.114C295.325 90.4902 291.785 94.0297 287.409 94.0297Z" fill="#767D4E"/>
<path d="M249.583 60.3981C247.559 60.3981 245.534 59.6291 243.985 58.0799C240.898 54.9928 240.898 49.9719 243.985 46.8848L260.201 30.6689C263.288 27.5817 268.309 27.5817 271.396 30.6689C274.483 33.756 274.483 38.7768 271.396 41.864L255.18 58.0799C253.631 59.6291 251.607 60.3981 249.583 60.3981Z" fill="#767D4E"/>
<path d="M265.81 141.091C263.786 141.091 261.762 140.323 260.213 138.773L243.997 122.557C240.91 119.47 240.91 114.449 243.997 111.362C247.084 108.275 252.105 108.275 255.192 111.362L271.408 127.578C274.495 130.665 274.495 135.686 271.408 138.773C269.859 140.323 267.835 141.091 265.81 141.091Z" fill="#767D4E"/>
</svg>
