<svg width="132" height="92" viewBox="0 0 132 92" fill="var(--off-white)" xmlns="http://www.w3.org/2000/svg">
<path d="M32.4346 66.6612V84.1063C32.4346 87.9958 29.2797 91.1507 25.3901 91.1507C21.5006 91.1507 18.3457 87.9958 18.3457 84.1063V66.5254H26.1298C28.2331 66.5254 30.3363 66.5707 32.4346 66.6612Z" fill="#FFF9ED"/>
<path d="M73.0205 9.03246C58.5593 14.1548 43.0314 16.7964 27.3374 16.7964H7.64823C3.42661 16.7964 0 19.6796 0 23.232V53.3821C0 56.9345 3.42661 59.8177 7.64823 59.8177H26.1298C42.6188 59.8177 58.9367 62.5952 74.1325 67.9893L78.6359 69.5843V7.04492L73.0205 9.03246ZM25.3901 41.8343H16.6802C14.7379 41.8343 13.158 40.2594 13.158 38.3121C13.158 36.3648 14.7379 34.7899 16.6802 34.7899H25.3901C27.3324 34.7899 28.9123 36.3699 28.9123 38.3121C28.9123 40.2543 27.3324 41.8343 25.3901 41.8343Z" fill="#FFF9ED"/>
<path d="M94.0933 76.6282C90.2037 76.6282 87.0488 73.4733 87.0488 69.5838V7.04442C87.0488 3.1549 90.2037 0 94.0933 0C97.9828 0 101.138 3.1549 101.138 7.04442V69.5838C101.138 73.4733 97.9828 76.6282 94.0933 76.6282Z" fill="#FFF9ED"/>
<path d="M127.886 41.8393H117.677C115.729 41.8393 114.154 40.2644 114.154 38.3171C114.154 36.3699 115.729 34.7949 117.677 34.7949H127.886C129.833 34.7949 131.408 36.3699 131.408 38.3171C131.408 40.2644 129.833 41.8393 127.886 41.8393Z" fill="#FFF9ED"/>
<path d="M111.056 26.8749C110.155 26.8749 109.255 26.5327 108.565 25.8434C107.192 24.4697 107.192 22.2356 108.565 20.862L115.781 13.6465C117.155 12.2728 119.389 12.2728 120.762 13.6465C122.136 15.0201 122.136 17.2542 120.762 18.6279L113.547 25.8434C112.857 26.5327 111.957 26.8749 111.056 26.8749Z" fill="#FFF9ED"/>
<path d="M118.276 62.7811C117.375 62.7811 116.474 62.439 115.785 61.7496L108.569 54.5341C107.196 53.1605 107.196 50.9264 108.569 49.5527C109.943 48.179 112.177 48.179 113.551 49.5527L120.766 56.7682C122.14 58.1419 122.14 60.376 120.766 61.7496C120.077 62.439 119.176 62.7811 118.276 62.7811Z" fill="#FFF9ED"/>
</svg>
