<svg width="161" height="233" viewBox="0 0 161 233" fill="none" xmlns="http://www.w3.org/2000/svg">
<path d="M157.284 31.9098C154.993 29.6154 151.825 28.188 148.33 28.188C141.33 28.188 135.661 33.8764 135.661 40.8757V113.989C135.661 114.623 135.397 115.204 134.985 115.627C134.563 116.04 133.982 116.304 133.349 116.304C132.071 116.304 131.036 115.268 131.036 113.989V25.1959C131.036 21.6856 129.622 18.5137 127.331 16.2193C125.061 13.9567 121.946 12.5399 118.483 12.5082C111.451 12.4447 105.697 18.6194 105.697 25.6611V113.999C105.697 114.633 105.433 115.215 105.022 115.627C104.599 116.04 104.019 116.304 103.385 116.304C102.108 116.304 101.083 115.268 101.083 113.999V12.6879C101.083 9.18822 99.6581 6.01629 97.367 3.71136C95.0865 1.43815 91.9508 0.0213621 88.4983 0.000215989C81.4772 -0.0420763 75.7442 6.1326 75.7442 13.1637V113.534C75.7442 114.306 75.4275 114.993 74.9313 115.49C74.4351 115.987 73.7382 116.304 72.9675 116.304C71.4366 116.304 70.2013 115.067 70.2013 113.534V24.7729C70.2013 17.9956 64.7111 12.5082 57.954 12.5082H57.0988C50.3417 12.5082 44.8621 17.9956 44.8621 24.7729V163.27C44.8621 163.354 44.7566 163.407 44.6932 163.344L40.9029 156.651C40.9029 156.651 30.3027 123.779 27.6737 115.638C27.1775 114.094 26.4384 112.635 25.3615 111.419C22.5742 108.279 18.5939 106.556 14.5079 106.556C12.0479 106.556 9.55622 107.19 7.26514 108.512C0.898673 112.191 -1.63524 119.973 1.07816 126.592C1.71164 128.135 2.35567 129.668 2.84134 131.265L16.5984 176.38C26.1745 207.772 53.9842 230.536 86.7034 232.47C87.4953 232.513 88.2977 232.544 89.0895 232.576C90.4515 232.618 91.7924 232.65 93.1438 232.756C103.66 233.517 161 235.431 161 186.097V40.8757C161 37.376 159.585 34.2041 157.284 31.9098ZM90.6099 136.858C90.6099 132.766 93.9251 129.457 98.0005 129.457C102.076 129.457 105.391 132.766 105.391 136.858V188.074C105.391 192.166 102.086 195.475 98.0005 195.475C93.9145 195.475 90.6099 192.166 90.6099 188.074V136.858ZM98.0005 217.848C93.8829 217.848 90.536 214.496 90.536 210.373C90.536 206.249 93.8829 202.898 98.0005 202.898C102.118 202.898 105.465 206.239 105.465 210.373C105.465 214.507 102.129 217.848 98.0005 217.848Z" fill="#767D4E"/>
</svg>
