<svg width="81" height="117" viewBox="0 0 81 117" fill="none" xmlns="http://www.w3.org/2000/svg">
<path d="M79.1303 16.0234C77.9776 14.8712 76.3841 14.1545 74.6259 14.1545C71.1041 14.1545 68.2517 17.0109 68.2517 20.5256V57.2389C68.2517 57.5574 68.1189 57.8494 67.9118 58.0618C67.6993 58.2689 67.4071 58.4016 67.0884 58.4016C66.4457 58.4016 65.9252 57.8813 65.9252 57.2389V12.652C65.9252 10.8893 65.2134 9.29656 64.0607 8.14446C62.9187 7.00829 61.3517 6.29685 59.6095 6.28092C56.0718 6.24907 53.1769 9.34966 53.1769 12.8856V57.2442C53.1769 57.5627 53.0441 57.8547 52.8369 58.0618C52.6245 58.2689 52.3323 58.4016 52.0136 58.4016C51.3709 58.4016 50.8556 57.8813 50.8556 57.2442V6.37118C50.8556 4.61383 50.1385 3.02106 48.9859 1.86364C47.8385 0.72216 46.2609 0.0107269 44.524 0.000108458C40.9917 -0.0211284 38.1074 3.07946 38.1074 6.61009V57.0106C38.1074 57.3982 37.948 57.7433 37.6983 57.9928C37.4487 58.2423 37.0981 58.4016 36.7104 58.4016C35.9401 58.4016 35.3187 57.7804 35.3187 57.0106V12.4396C35.3187 9.03641 32.5565 6.28092 29.157 6.28092H28.7267C25.3272 6.28092 22.5704 9.03641 22.5704 12.4396V81.9852C22.5704 82.0277 22.5173 82.0542 22.4854 82.0223L20.5785 78.6616C20.5785 78.6616 15.2454 62.1552 13.9228 58.0671C13.6732 57.292 13.3013 56.5593 12.7595 55.9487C11.3572 54.3719 9.35468 53.5065 7.29902 53.5065C6.06137 53.5065 4.80779 53.8251 3.65513 54.4887C0.452128 56.3363 -0.8227 60.2439 0.542428 63.5675C0.861135 64.3426 1.18515 65.1125 1.42949 65.9142L8.35075 88.5686C13.1685 104.332 27.1598 115.762 43.621 116.734C44.0194 116.755 44.4231 116.771 44.8214 116.787C45.5067 116.808 46.1813 116.824 46.8612 116.877C52.1517 117.26 81 118.221 81 93.4478V20.5256C81 18.7682 80.2882 17.1755 79.1303 16.0234ZM45.5863 68.7227C45.5863 66.6681 47.2542 65.0063 49.3046 65.0063C51.3549 65.0063 53.0228 66.6681 53.0228 68.7227V94.4406C53.0228 96.4953 51.3602 98.1571 49.3046 98.1571C47.2489 98.1571 45.5863 96.4953 45.5863 94.4406V68.7227ZM49.3046 109.391C47.233 109.391 45.5492 107.708 45.5492 105.638C45.5492 103.567 47.233 101.884 49.3046 101.884C51.3762 101.884 53.06 103.562 53.06 105.638C53.06 107.714 51.3815 109.391 49.3046 109.391Z" fill="#FFF9ED"/>
</svg>
