<svg width="206" height="206" viewBox="0 0 206 206" fill="none" xmlns="http://www.w3.org/2000/svg">
<path d="M181.441 0H24.5588C10.9991 0 0 10.9991 0 24.5588V181.441C0 195.001 10.9991 206 24.5588 206H181.441C195.001 206 206 195.001 206 181.441V24.5588C206 10.9991 195.001 0 181.441 0ZM69.0737 178.589H53.85C49.6686 178.589 46.2868 175.207 46.2868 171.026C46.2868 166.844 49.6686 163.462 53.85 163.462H69.0737C73.255 163.462 76.6369 166.844 76.6369 171.026C76.6369 175.207 73.255 178.589 69.0737 178.589ZM110.369 178.589H95.1451C90.9745 178.589 87.5819 175.207 87.5819 171.026C87.5819 166.844 90.9745 163.462 95.1451 163.462H110.369C114.55 163.462 117.932 166.844 117.932 171.026C117.932 175.207 114.55 178.589 110.369 178.589ZM151.664 178.589H136.451C132.27 178.589 128.888 175.207 128.888 171.026C128.888 166.844 132.27 163.462 136.451 163.462H151.664C155.845 163.462 159.227 166.844 159.227 171.026C159.227 175.207 155.845 178.589 151.664 178.589ZM172.279 127.235C172.279 139.066 162.652 148.693 150.81 148.693H55.1898C43.348 148.693 33.7211 139.066 33.7211 127.235V47.3456C33.7211 35.5146 43.348 25.8878 55.1898 25.8878H150.81C162.652 25.8878 172.279 35.5146 172.279 47.3456V127.235ZM135.36 96.5821L131.243 90.1426L115.252 119.834C113.923 122.286 111.363 123.81 108.597 123.81C108.446 123.81 108.305 123.799 108.154 123.788C105.215 123.626 102.643 121.768 101.563 119.034L83.5734 73.7304L69.4518 96.4957C68.0688 98.7214 65.6378 100.072 63.0231 100.072H48.8475V127.235C48.8475 130.725 51.6891 133.566 55.1898 133.566H150.81C154.311 133.566 157.153 130.725 157.153 127.235V100.072H141.724C139.152 100.072 136.743 98.7646 135.36 96.5821ZM150.81 41.0142H55.1898C51.6891 41.0142 48.8475 43.8558 48.8475 47.3456V84.9456H58.8093L78.6357 52.9964C80.1375 50.5654 82.9143 49.1932 85.7343 49.4417C88.5759 49.701 91.0394 51.5378 92.0982 54.1849L109.634 98.3648L124.026 71.6451C125.29 69.2789 127.721 67.7663 130.4 67.6691C133.08 67.561 135.608 68.89 137.056 71.1589L145.873 84.9456H157.153V47.3456C157.153 43.8558 154.311 41.0142 150.81 41.0142Z" fill="#767D4E"/>
</svg>
