<svg width="104" height="104" viewBox="0 0 104 104" fill="none" xmlns="http://www.w3.org/2000/svg">
<path d="M91.6014 0H12.3986C5.55292 0 0 5.55292 0 12.3986V91.6014C0 98.4471 5.55292 104 12.3986 104H91.6014C98.4471 104 104 98.4471 104 91.6014V12.3986C104 5.55292 98.4471 0 91.6014 0ZM34.8721 90.1613H27.1864C25.0754 90.1613 23.3681 88.454 23.3681 86.343C23.3681 84.232 25.0754 82.5247 27.1864 82.5247H34.8721C36.9831 82.5247 38.6904 84.232 38.6904 86.343C38.6904 88.454 36.9831 90.1613 34.8721 90.1613ZM55.7201 90.1613H48.0344C45.9289 90.1613 44.2161 88.454 44.2161 86.343C44.2161 84.232 45.9289 82.5247 48.0344 82.5247H55.7201C57.8311 82.5247 59.5385 84.232 59.5385 86.343C59.5385 88.454 57.8311 90.1613 55.7201 90.1613ZM76.5681 90.1613H68.8879C66.7769 90.1613 65.0695 88.454 65.0695 86.343C65.0695 84.232 66.7769 82.5247 68.8879 82.5247H76.5681C78.6791 82.5247 80.3865 84.232 80.3865 86.343C80.3865 88.454 78.6791 90.1613 76.5681 90.1613ZM86.9758 64.235C86.9758 70.2079 82.1156 75.0681 76.1372 75.0681H27.8628C21.8844 75.0681 17.0242 70.2079 17.0242 64.235V23.9027C17.0242 17.9297 21.8844 13.0695 27.8628 13.0695H76.1372C82.1156 13.0695 86.9758 17.9297 86.9758 23.9027V64.235ZM68.3369 48.7599L66.2587 45.5089L58.1857 60.4985C57.5147 61.7367 56.222 62.5058 54.8256 62.5058C54.7492 62.5058 54.6783 62.5004 54.6019 62.4949C53.1182 62.4131 51.82 61.4749 51.2745 60.0948L42.1924 37.2231L35.063 48.7162C34.3648 49.8399 33.1375 50.5218 31.8175 50.5218H24.6609V64.235C24.6609 65.9968 26.0955 67.4315 27.8628 67.4315H76.1372C77.9045 67.4315 79.3391 65.9968 79.3391 64.235V50.5218H71.5498C70.2515 50.5218 69.0351 49.8617 68.3369 48.7599ZM76.1372 20.7062H27.8628C26.0955 20.7062 24.6609 22.1408 24.6609 23.9027V42.8851H29.6901L39.6996 26.7555C40.4578 25.5282 41.8596 24.8354 43.2833 24.9609C44.7179 25.0918 45.9616 26.0191 46.4962 27.3555L55.3492 49.6599L62.6149 36.1704C63.2531 34.9758 64.4804 34.2121 65.8332 34.163C67.186 34.1085 68.4624 34.7794 69.1933 35.9249L73.6444 42.8851H79.3391V23.9027C79.3391 22.1408 77.9045 20.7062 76.1372 20.7062Z" fill="#FFF9ED"/>
</svg>
