<svg width="282" height="223" viewBox="0 0 282 223" fill="none" xmlns="http://www.w3.org/2000/svg">
<path d="M110.153 82.6533C126.195 77.6232 134.036 57.0817 127.668 36.7727C121.3 16.4638 103.133 4.07781 87.092 9.10795C71.0508 14.1381 63.2094 34.6795 69.5776 54.9885C75.9459 75.2975 94.1123 87.6834 110.153 82.6533Z" fill="#767D4E"/>
<path d="M73.2638 129.515C86.03 118.577 85.1531 96.6071 71.3049 80.4443C57.4568 64.2815 35.8816 60.0462 23.1154 70.9845C10.3491 81.9228 11.2261 103.893 25.0742 120.055C38.9223 136.218 60.4975 140.453 73.2638 129.515Z" fill="#767D4E"/>
<path d="M211.885 55.0437C218.253 34.7347 210.411 14.1932 194.37 9.16311C178.329 4.13297 160.163 16.5189 153.794 36.8279C147.426 57.1369 155.268 77.6783 171.309 82.7085C187.35 87.7386 205.516 75.3526 211.885 55.0437Z" fill="#767D4E"/>
<path d="M256.369 120.06C270.218 103.897 271.095 81.9271 258.328 70.9888C245.562 60.0505 223.987 64.2858 210.139 80.4486C196.291 96.6114 195.414 118.581 208.18 129.519C220.946 140.458 242.521 136.222 256.369 120.06Z" fill="#767D4E"/>
<path d="M139.485 83.7812C165.109 82.9069 186.169 103.416 186.169 128.86V128.92C186.169 131.915 188.217 134.538 191.152 135.113C239.477 144.613 236.398 221.162 181.88 222.097V222.085C171.805 221.917 163.491 219.162 156.927 214.729C147.128 208.105 134.406 208.117 124.415 214.454C98.7553 230.746 56.2885 218.635 55.6055 178.12C56.0247 153.382 72.0174 139.235 90.25 135.677C93.5922 135.03 95.9636 132.106 95.9756 128.704V128.309C96.2632 104.398 115.587 84.6078 139.485 83.7812ZM141.03 122.451C136.394 122.451 132.646 126.213 132.646 130.837V146.471H116.7C112.076 146.471 108.314 150.22 108.314 154.856C108.315 159.492 112.076 163.242 116.7 163.242H132.646V178.875C132.646 183.499 136.406 187.261 141.03 187.261C145.654 187.261 149.416 183.499 149.416 178.875V163.242H164.738C169.362 163.242 173.123 159.492 173.123 154.856C173.123 150.221 169.362 146.471 164.738 146.471H149.416V130.837C149.416 126.213 145.666 122.451 141.03 122.451Z" fill="#767D4E"/>
</svg>
