<svg width="124" height="98" viewBox="0 0 124 98" fill="none" xmlns="http://www.w3.org/2000/svg">
<path d="M48.1642 36.1395C55.1782 33.9401 58.6068 24.9586 55.8223 16.0787C53.0378 7.19877 45.0946 1.78314 38.0807 3.98252C31.0668 6.1819 27.6381 15.1634 30.4226 24.0433C33.2071 32.9232 41.1503 38.3388 48.1642 36.1395Z" fill="#FFF9ED"/>
<path d="M32.0343 56.6294C37.6163 51.8467 37.2328 42.2407 31.1778 35.1737C25.1227 28.1067 15.6891 26.2548 10.1071 31.0375C4.5251 35.8202 4.90856 45.4262 10.9636 52.4932C17.0186 59.5602 26.4523 61.4121 32.0343 56.6294Z" fill="#FFF9ED"/>
<path d="M92.6457 24.0678C95.4302 15.1879 92.0015 6.20639 84.9876 4.00701C77.9737 1.80764 70.0305 7.22328 67.246 16.1032C64.4615 24.9831 67.8901 33.9646 74.9041 36.164C81.918 38.3633 89.8612 32.9477 92.6457 24.0678Z" fill="#FFF9ED"/>
<path d="M112.096 52.4953C118.151 45.4283 118.535 35.8222 112.953 31.0395C107.371 26.2569 97.9373 28.1087 91.8823 35.1757C85.8273 42.2427 85.4438 51.8488 91.0258 56.6314C96.6078 61.4141 106.041 59.5623 112.096 52.4953Z" fill="#FFF9ED"/>
<path d="M60.9888 36.6338C72.1926 36.2515 81.4008 45.2185 81.4009 56.3438V56.3701C81.4009 57.6795 82.2965 58.8266 83.5796 59.0781C104.709 63.2318 103.364 96.7017 79.5259 97.1104V97.1055C75.1208 97.0321 71.4851 95.8277 68.6147 93.8896C64.3301 90.9932 58.7673 90.9977 54.3989 93.7686C43.1793 100.892 24.6115 95.5964 24.313 77.8818C24.4965 67.066 31.4886 60.88 39.4604 59.3242C40.9218 59.0414 41.9591 57.763 41.9644 56.2754V56.1025C42.0903 45.6478 50.5392 36.9952 60.9888 36.6338ZM61.6646 53.542C59.6375 53.542 57.9976 55.1872 57.9976 57.209V64.0449H51.0259C49.0043 64.0451 47.3599 65.684 47.3599 67.7109C47.3599 69.7379 49.0042 71.3777 51.0259 71.3779H57.9976V78.2129C57.9976 80.2347 59.6427 81.8799 61.6646 81.8799C63.6864 81.8799 65.3315 80.2347 65.3315 78.2129V71.3779H72.0308C74.0524 71.3777 75.6968 69.7379 75.6968 67.7109C75.6967 65.684 74.0524 64.0451 72.0308 64.0449H65.3315V57.209C65.3315 55.1872 63.6916 53.542 61.6646 53.542Z" fill="#FFF9ED"/>
</svg>
