<svg width="280" height="204" viewBox="0 0 280 204" fill="none" xmlns="http://www.w3.org/2000/svg">
<path d="M230.737 122.049V149.658C230.737 167.209 198.221 185.341 172.097 197.092C151.587 206.303 128.154 206.303 107.644 197.092C81.5201 185.341 49.0039 167.209 49.0039 149.658V122.049L119.233 154.565C132.272 160.597 147.469 160.597 160.508 154.565L230.737 122.049Z" fill="#767D4E"/>
<path d="M261.756 107.673V136.5C261.756 140.989 258.114 144.62 253.636 144.62C249.158 144.62 245.516 140.989 245.516 136.5V115.202L261.756 107.673Z" fill="#767D4E"/>
<path d="M267.626 88.3696L160.496 136.512C147.468 142.37 132.26 142.37 119.233 136.512L12.1022 88.3696C-4.03407 81.1193 -4.03407 59.786 12.1022 52.5357L119.233 4.39368C132.26 -1.46456 147.468 -1.46456 160.496 4.39368L267.626 52.5357C283.762 59.786 283.762 81.1193 267.626 88.3696Z" fill="#767D4E"/>
</svg>
