<svg width="119" height="87" viewBox="0 0 119 87" fill="none" xmlns="http://www.w3.org/2000/svg">
<path d="M97.4384 51.54V63.1992C97.4384 70.6111 83.7071 78.2679 72.675 83.2304C64.0139 87.1201 54.1183 87.1201 45.4572 83.2304C34.4251 78.2679 20.6937 70.6111 20.6937 63.1992V51.54L50.3511 65.2714C55.8574 67.8188 62.2748 67.8188 67.7811 65.2714L97.4384 51.54Z" fill="#FFF9ED"/>
<path d="M110.538 45.4697V57.6433C110.538 59.5391 109 61.0724 107.109 61.0724C105.218 61.0724 103.68 59.5391 103.68 57.6433V48.6491L110.538 45.4697Z" fill="#FFF9ED"/>
<path d="M113.017 37.3179L67.7762 57.6479C62.2748 60.1218 55.8525 60.1218 50.3512 57.6479L5.11068 37.3179C-1.70356 34.2561 -1.70356 25.2472 5.11068 22.1855L50.3512 1.85542C55.8525 -0.618474 62.2748 -0.618474 67.7762 1.85542L113.017 22.1855C119.831 25.2472 119.831 34.2561 113.017 37.3179Z" fill="#FFF9ED"/>
</svg>
