<svg width="299" height="158" viewBox="0 0 299 158" fill="none" xmlns="http://www.w3.org/2000/svg">
<path d="M295.118 70.2028C254.8 23.4093 201.967 0 149.122 0C96.2762 0 43.4556 23.4093 3.12581 70.2028C-1.04194 75.0694 -1.04194 82.9307 3.12581 87.7972C43.4556 134.591 96.2887 158 149.122 158C201.955 158 254.8 134.591 295.118 87.7972C297.214 85.3515 298.262 82.182 298.262 79C298.262 75.818 297.214 72.6361 295.118 70.2028ZM149.134 138.896C115.53 138.896 88.3025 111.668 88.3025 78.0641C88.3025 44.4601 115.53 17.2325 149.134 17.2325C182.738 17.2325 209.966 44.4726 209.966 78.0641C209.966 111.656 182.726 138.896 149.134 138.896Z" fill="#767D4E"/>
<path d="M179.206 78.0648C179.206 94.6734 165.742 108.137 149.134 108.137C135.595 108.137 124.14 99.1781 120.371 86.862C121.831 87.0867 123.316 87.1989 124.838 87.1989C141.447 87.1989 154.911 73.7349 154.911 57.1263C154.911 54.0691 154.449 51.1118 153.601 48.3291C168.088 50.4878 179.206 62.9786 179.206 78.0648Z" fill="#767D4E"/>
</svg>
