<svg width="111" height="59" viewBox="0 0 111 59" fill="none" xmlns="http://www.w3.org/2000/svg">
<path d="M109.492 26.0461C94.5341 8.68513 74.9324 0 55.326 0C35.7197 0 16.1226 8.68513 1.15971 26.0461C-0.386572 27.8517 -0.386572 30.7683 1.15971 32.5739C16.1226 49.9349 35.7243 58.62 55.326 58.62C74.9278 58.62 94.5341 49.9349 109.492 32.5739C110.27 31.6665 110.659 30.4905 110.659 29.31C110.659 28.1294 110.27 26.9489 109.492 26.0461ZM55.3307 51.5321C42.8631 51.5321 32.7614 41.4303 32.7614 28.9628C32.7614 16.4953 42.8631 6.39348 55.3307 6.39348C67.7982 6.39348 77.9 16.4999 77.9 28.9628C77.9 41.4257 67.7935 51.5321 55.3307 51.5321Z" fill="#FFF9ED"/>
<path d="M66.488 28.963C66.488 35.125 61.4927 40.1203 55.3307 40.1203C50.3075 40.1203 46.0576 36.7963 44.6594 32.2269C45.2011 32.3102 45.752 32.3519 46.3168 32.3519C52.4788 32.3519 57.4742 27.3565 57.4742 21.1945C57.4742 20.0603 57.3029 18.9631 56.988 17.9307C62.363 18.7316 66.488 23.3658 66.488 28.963Z" fill="#FFF9ED"/>
</svg>
