<svg width="64" height="63" viewBox="0 0 64 63" fill="none" xmlns="http://www.w3.org/2000/svg">
<path d="M18.8066 0.0485455C19.1442 -0.0283398 19.4967 -0.0137153 19.8276 0.0911163L32.126 3.98765C33.1517 4.31263 33.7198 5.40747 33.3948 6.43321C33.0698 7.45894 31.975 8.02697 30.9492 7.70201L19.2195 3.98551C15.3304 5.24666 7.66187 10.0637 4.52184 20.8183L11.5403 19.8613L8.88665 23.544C7.28605 25.7653 4.15705 32.3797 4.45692 40.9771L9.75115 39.5587L10.1842 41.5572C11.0675 45.6314 16.7231 56.7827 31.8152 58.9551C32.8802 59.1084 33.6192 60.0959 33.4659 61.1609C33.3126 62.2259 32.3251 62.9649 31.2601 62.8116C16.0565 60.6232 9.09517 50.3032 6.95123 44.3428L3.18312 45.3526C2.6325 45.5001 2.04492 45.399 1.57519 45.076C1.10548 44.7531 0.800795 44.2407 0.74137 43.6738C-0.0840722 35.7946 1.77396 29.0998 3.70658 24.8621L2.21161 25.0661C1.58684 25.1513 0.959363 24.9289 0.527803 24.4692C0.0962613 24.0095 -0.0860975 23.3692 0.038358 22.7511C3.02811 7.90545 13.5302 1.44815 18.7393 0.0651933L18.8066 0.0485455Z" fill="#FD8E3A"/>
<path d="M44.2686 0.0485455C43.931 -0.0283398 43.5785 -0.0137153 43.2476 0.0911163L30.9492 3.98765C29.9235 4.31263 29.3554 5.40747 29.6804 6.43321C30.0054 7.45894 31.1002 8.02697 32.1259 7.70201L43.8557 3.98551C47.7448 5.24666 55.4133 10.0637 58.5534 20.8183L51.5349 19.8613L54.1885 23.544C55.7891 25.7653 58.9181 32.3797 58.6183 40.9771L53.324 39.5587L52.891 41.5572C52.0077 45.6314 46.3521 56.7827 31.26 58.9551C30.195 59.1084 29.456 60.0959 29.6093 61.1609C29.7626 62.2259 30.7501 62.9649 31.8151 62.8116C47.0187 60.6232 53.98 50.3032 56.124 44.3428L59.8921 45.3526C60.4427 45.5001 61.0303 45.399 61.5 45.076C61.9697 44.7531 62.2744 44.2407 62.3338 43.6738C63.1593 35.7946 61.3012 29.0998 59.3686 24.8621L60.8636 25.0661C61.4884 25.1513 62.1158 24.9289 62.5474 24.4692C62.9789 24.0095 63.1613 23.3692 63.0368 22.7511C60.0471 7.90545 49.545 1.44815 44.3359 0.0651933L44.2686 0.0485455Z" fill="#FD8E3A"/>
<path d="M20.0983 11.5615C21.6056 10.7757 23.2276 10.8146 24.5283 11.0711L31.5491 12.4555C32.6048 12.6636 33.2918 13.6882 33.0836 14.7438C32.8754 15.7995 31.8509 16.4864 30.7952 16.2783L23.7744 14.8939C22.94 14.7294 22.3223 14.7966 21.8999 15.0169C19.9021 16.0584 17.1625 18.5071 16.0094 23.0706C15.3403 25.719 16.5512 28.6421 18.8324 31.0824L21.1852 33.5993L20.4163 34.8624C19.6827 36.0676 19.0236 37.8731 19.1532 39.4258C19.2142 40.1562 19.4439 40.7878 19.8857 41.318C20.3163 41.8346 21.0533 42.3804 22.3413 42.7794L22.4678 42.8177L23.2119 43.0365L26.5769 48.8204C26.6362 48.9223 26.7599 48.967 26.8706 48.9267L30.5065 47.6046C31.5177 47.237 32.6355 47.7586 33.0032 48.7697C33.3709 49.7809 32.8493 50.8989 31.8381 51.2667L28.2022 52.5887C26.3194 53.2733 24.2166 52.5115 23.2091 50.7798L20.6049 46.3044C19.0278 45.7272 17.789 44.8884 16.8924 43.8128C15.8533 42.5659 15.3858 41.135 15.2702 39.7497C15.101 37.7212 15.6736 35.7153 16.3833 34.1682L15.9858 33.7432C13.2546 30.8214 11.1028 26.584 12.2318 22.1159C13.6832 16.3717 17.2143 13.0651 20.0983 11.5615Z" fill="#FD8E3A"/>
<path d="M42.855 11.5615C41.3478 10.7757 39.7257 10.8146 38.4251 11.0711L31.4042 12.4555C30.3486 12.6636 29.6616 13.6882 29.8698 14.7438C30.078 15.7995 31.1025 16.4864 32.1581 16.2783L39.179 14.8939C40.0133 14.7294 40.631 14.7966 41.0535 15.0169C43.0513 16.0584 45.7909 18.5071 46.944 23.0706C47.6131 25.719 46.4021 28.6421 44.121 31.0824L41.7682 33.5993L42.5371 34.8624C43.2707 36.0676 43.9297 37.8731 43.8002 39.4258C43.7392 40.1562 43.5095 40.7878 43.0677 41.318C42.6371 41.8346 41.9001 42.3804 40.6121 42.7794L40.4856 42.8177L39.7414 43.0365L36.3764 48.8204C36.3172 48.9223 36.1935 48.967 36.0827 48.9267L32.4468 47.6046C31.4357 47.237 30.3179 47.7586 29.9502 48.7697C29.5825 49.7809 30.1041 50.8989 31.1153 51.2667L34.7511 52.5887C36.634 53.2733 38.7368 52.5115 39.7443 50.7798L42.3485 46.3044C43.9256 45.7272 45.1644 44.8884 46.0609 43.8128C47.1001 42.5659 47.5675 41.135 47.6831 39.7497C47.8524 37.7212 47.2798 35.7153 46.5701 34.1682L46.9675 33.7432C49.6988 30.8214 51.8506 26.584 50.7216 22.1159C49.2701 16.3717 45.7391 13.0651 42.855 11.5615Z" fill="#FD8E3A"/>
<path d="M29.4674 22.7695V33.1197H31.4157C32.4917 33.1197 33.364 33.992 33.364 35.068C33.364 36.144 32.4917 37.0162 31.4157 37.0162H25.5709V26.6661H23.2573C22.1814 26.6661 21.3091 25.7938 21.3091 24.7178C21.3091 23.6418 22.1814 22.7695 23.2573 22.7695H29.4674Z" fill="#FD8E3A"/>
<path d="M33.7295 22.7695V33.1197H31.7812C30.7052 33.1197 29.8329 33.992 29.8329 35.068C29.8329 36.144 30.7052 37.0162 31.7812 37.0162H37.626V26.6661H39.9396C41.0155 26.6661 41.8878 25.7938 41.8878 24.7178C41.8878 23.6418 41.0155 22.7695 39.9396 22.7695H33.7295Z" fill="#FD8E3A"/>
<path d="M29.711 37.0186C29.711 35.9426 30.5833 35.0703 31.6593 35.0703C32.7353 35.0703 33.6076 35.9426 33.6076 37.0186V39.2311L41.4292 43.1956C42.3889 43.6821 42.7725 44.8546 42.2861 45.8143C41.7996 46.774 40.6271 47.1576 39.6674 46.6712L31.6593 42.6122L23.6512 46.6712C22.6915 47.1576 21.519 46.774 21.0325 45.8143C20.5461 44.8546 20.9297 43.6821 21.8894 43.1956L29.711 39.2311V37.0186Z" fill="#FD8E3A"/>
</svg>
