<svg width="60" height="60" viewBox="0 0 60 60" fill="none" xmlns="http://www.w3.org/2000/svg">
<path d="M0 30C0 13.4315 13.4315 0 30 0C31.0118 0 31.8321 0.820242 31.8321 1.83206C31.8321 2.84388 31.0118 3.66412 30 3.66412C15.4551 3.66412 3.66412 15.4551 3.66412 30C3.66412 44.5449 15.4551 56.3359 30 56.3359C44.5449 56.3359 56.3359 44.5449 56.3359 30C56.3359 28.9882 57.1561 28.1679 58.1679 28.1679C59.1798 28.1679 60 28.9882 60 30C60 46.5685 46.5685 60 30 60C13.4315 60 0 46.5685 0 30Z" fill="#FD8E3A"/>
<path d="M9.61829 30.0008C9.61829 18.7443 18.7435 9.61914 30 9.61914C31.0118 9.61914 31.832 10.4394 31.832 11.4512C31.832 12.463 31.0118 13.2833 30 13.2833C20.7671 13.2833 13.2824 20.768 13.2824 30.0008C13.2824 39.2337 20.7671 46.7184 30 46.7184C39.2328 46.7184 46.7175 39.2337 46.7175 30.0008C46.7175 28.989 47.5378 28.1688 48.5496 28.1688C49.5614 28.1688 50.3816 28.989 50.3816 30.0008C50.3816 41.2573 41.2565 50.3825 30 50.3825C18.7435 50.3825 9.61829 41.2573 9.61829 30.0008Z" fill="#FD8E3A"/>
<path d="M18.3206 29.9997C18.3206 23.5494 23.5496 18.3203 29.9999 18.3203C31.0118 18.3203 31.832 19.1406 31.832 20.1524C31.832 21.1642 31.0118 21.9844 29.9999 21.9844C25.5732 21.9844 21.9847 25.573 21.9847 29.9997C21.9847 34.4264 25.5732 38.015 29.9999 38.015C34.4267 38.015 38.0152 34.4264 38.0152 29.9997C38.0152 28.9879 38.8355 28.1676 39.8473 28.1676C40.8591 28.1676 41.6793 28.9879 41.6793 29.9997C41.6793 36.4501 36.4503 41.6791 29.9999 41.6791C23.5496 41.6791 18.3206 36.4501 18.3206 29.9997Z" fill="#FD8E3A"/>
<path d="M47.3289 2.59693C47.8615 2.06437 48.6657 1.91207 49.3562 2.21297C50.0467 2.51393 50.4827 3.20687 50.4551 3.9596L50.2372 9.89481L56.1724 9.6769C56.9251 9.64931 57.6179 10.0852 57.9189 10.7756C58.2198 11.4661 58.0676 12.2705 57.5351 12.8031L49.3396 20.9986C48.9948 21.3434 48.5268 21.5364 48.0392 21.5352L41.2058 21.5171L31.0846 31.6383C30.3692 32.3537 29.2092 32.3537 28.4937 31.6383C27.7783 30.9228 27.7783 29.7628 28.4937 29.0473L38.6148 18.9262L38.5968 12.0928L38.5987 12.0017C38.6201 11.5472 38.8101 11.1156 39.1334 10.7924L47.3289 2.59693ZM42.2759 17.8558L47.2874 17.8689L51.6468 13.5095L48.4013 13.6286C47.8925 13.6473 47.3987 13.4534 47.0387 13.0933C46.6786 12.7332 46.4847 12.2395 46.5034 11.7306L46.6225 8.48518L42.2629 12.8447L42.2759 17.8558Z" fill="#FD8E3A"/>
</svg>
