<svg width="53" height="65" viewBox="0 0 53 65" fill="none" xmlns="http://www.w3.org/2000/svg">
<path d="M0 54.3821V9.29471C0 7.11265 1.76891 5.34375 3.95096 5.34375H9.9936V9.0623H3.95096C3.8226 9.0623 3.71855 9.16636 3.71855 9.29471V54.3821L3.71969 54.406C3.73162 54.5231 3.83065 54.6145 3.95096 54.6145H36.7207V58.3331H3.95096C1.80298 58.3331 0.0554151 56.619 0.00136177 54.484L0 54.3821ZM34.8614 9.29471C34.8614 9.16635 34.7574 9.0623 34.629 9.0623H27.8891V5.34375H34.629C36.8111 5.34375 38.58 7.11266 38.58 9.29471V42.7617H34.8614V9.29471Z" fill="#FD8E3A"/>
<path d="M26.2622 3.71855H11.8528V6.73987C11.8528 9.05028 13.7258 10.9232 16.0362 10.9232H22.0788C24.3893 10.9232 26.2622 9.05028 26.2622 6.73987V3.71855ZM29.9808 6.73987C29.9808 11.104 26.443 14.6418 22.0788 14.6418H16.0362C11.6721 14.6418 8.13428 11.104 8.13428 6.73987V1.85928C8.13428 0.832426 8.9667 0 9.99355 0H28.1215C29.1483 0 29.9808 0.832426 29.9808 1.85928V6.73987Z" fill="#FD8E3A"/>
<path d="M29.8646 15.8027C30.8915 15.8027 31.7239 16.6352 31.7239 17.662C31.7239 18.6889 30.8915 19.5213 29.8646 19.5213H8.59914C7.57229 19.5213 6.73987 18.6889 6.73987 17.662C6.73987 16.6352 7.57229 15.8027 8.59914 15.8027H29.8646Z" fill="#FD8E3A"/>
<path d="M29.8646 22.7754C30.8915 22.7754 31.7239 23.6078 31.7239 24.6347C31.7239 25.6615 30.8915 26.4939 29.8646 26.4939H8.59914C7.57229 26.4939 6.73987 25.6615 6.73987 24.6347C6.73987 23.6078 7.57229 22.7754 8.59914 22.7754H29.8646Z" fill="#FD8E3A"/>
<path d="M16.0362 43.6914L16.132 43.6939C17.1144 43.7438 17.8955 44.556 17.8955 45.5507C17.8955 46.5454 17.1144 47.3576 16.132 47.4075L16.0362 47.41H8.59914C7.57229 47.41 6.73987 46.5775 6.73987 45.5507C6.73987 44.5238 7.57229 43.6914 8.59914 43.6914H16.0362Z" fill="#FD8E3A"/>
<path d="M46.8987 56.161C46.9838 56.0759 46.9892 55.9413 46.9148 55.85L46.8987 55.8323L29.2985 38.2321L25.683 41.8475L43.2833 59.4478C43.374 59.5385 43.5212 59.5385 43.6119 59.4478L46.8987 56.161ZM24.9913 35.1934C24.0439 34.6269 22.9881 34.265 21.8923 34.1313L21.4213 34.0737C21.6998 35.8079 22.3475 37.4695 23.3282 38.9435L26.2974 35.9744L24.9913 35.1934ZM46.2414 62.0772C44.6984 63.6201 42.1968 63.6201 40.6539 62.0772L21.6152 43.0385L20.325 41.1427C18.5147 38.4824 17.5467 35.3389 17.5467 32.1211L17.5465 31.955C17.5465 31.4226 17.7748 30.9158 18.1734 30.5629C18.5719 30.2101 19.1025 30.045 19.6309 30.1094L22.3427 30.4401C23.9541 30.6367 25.5065 31.1688 26.8998 32.002L30.4504 34.1252L49.5281 53.2029L49.5992 53.2759C51.0706 54.8238 51.047 57.2716 49.5281 58.7904L46.2414 62.0772Z" fill="#FD8E3A"/>
</svg>
