<svg width="1920" height="77" viewBox="0 0 1920 77" fill="none" xmlns="http://www.w3.org/2000/svg">
<path fill-rule="evenodd" clip-rule="evenodd" d="M0 37.1637L27.2 43.3576C52.8 49.5516 107.2 61.9395 160 60.391C212.8 58.8425 267.2 43.3576 320 44.9061C372.8 46.4546 427.2 65.0364 480 72.7789C532.8 80.5213 587.2 77.4243 640 65.0364C692.8 52.6486 747.2 30.9697 800 21.6788C852.8 12.3879 907.2 15.4849 960 27.8728C1012.8 40.2607 1067.2 61.9395 1120 68.1334C1172.8 74.3274 1227.2 65.0364 1280 54.197C1332.8 43.3576 1387.2 30.9697 1440 23.2273C1492.8 15.4849 1547.2 12.3879 1600 18.5818C1652.8 24.7758 1707.2 40.2607 1760 44.9061C1812.8 49.5516 1867.2 43.3576 1892.8 40.2607L1920 37.1637V0H1892.8C1867.2 0 1812.8 0 1760 0C1707.2 0 1652.8 0 1600 0C1547.2 0 1492.8 0 1440 0C1387.2 0 1332.8 0 1280 0C1227.2 0 1172.8 0 1120 0C1067.2 0 1012.8 0 960 0C907.2 0 852.8 0 800 0C747.2 0 692.8 0 640 0C587.2 0 532.8 0 480 0C427.2 0 372.8 0 320 0C267.2 0 212.8 0 160 0C107.2 0 52.8 0 27.2 0H0V37.1637Z" fill="#767D4E"/>
</svg>
