<svg width="100" height="98" viewBox="0 0 100 98" fill="none" xmlns="http://www.w3.org/2000/svg">
<path d="M21.954 50.7636C17.1755 32.93 27.7588 14.5993 45.5924 9.82078C46.171 9.66573 46.7658 10.0091 46.9209 10.5878C47.0759 11.1665 46.7325 11.7613 46.1539 11.9163C29.4776 16.3847 19.5812 33.5259 24.0496 50.2021C28.5179 66.8784 45.6591 76.7748 62.3353 72.3064L62.8968 74.402C45.0632 79.1805 26.7325 68.5972 21.954 50.7636Z" fill="white"/>
<path d="M38.8516 57.0575C46.6373 59.1437 51.2577 67.1465 49.1716 74.9322C41.3858 72.8461 36.7654 64.8433 38.8516 57.0575ZM40.5497 59.9988C40.2059 65.0167 42.9558 69.7795 47.4733 71.9907C47.817 66.9729 45.0672 62.21 40.5497 59.9988Z" fill="white"/>
<path d="M48.4004 59.8079C56.4608 59.8079 62.9951 66.3421 62.9951 74.4025C54.9346 74.4025 48.4004 67.8683 48.4004 59.8079ZM50.802 62.2094C51.7686 67.1453 55.6575 71.0341 60.5933 72.0008C59.6266 67.0649 55.7378 63.176 50.802 62.2094Z" fill="white"/>
<path d="M36.3125 45.6912C40.3427 52.6717 37.951 61.5977 30.9705 65.6279C26.9403 58.6473 29.332 49.7214 36.3125 45.6912ZM35.4335 48.9718C31.6422 52.2768 30.2188 57.5891 31.8496 62.347C35.6408 59.0419 37.0643 53.7297 35.4335 48.9718Z" fill="white"/>
<path d="M36.7568 35.8025C36.7568 43.8629 30.2226 50.3972 22.1622 50.3972C22.1622 42.3367 28.6964 35.8025 36.7568 35.8025ZM34.3553 38.2041C29.4194 39.1707 25.5306 43.0596 24.5639 47.9954C29.4998 47.0287 33.3887 43.1399 34.3553 38.2041Z" fill="white"/>
<path d="M11.9404 32.8242C9.85424 40.61 14.4747 48.6128 22.2604 50.699C24.3466 42.9132 19.7262 34.9104 11.9404 32.8242ZM13.6386 35.7655C18.1561 37.9767 20.9059 42.7396 20.5621 47.7574C16.0447 45.5462 13.2948 40.7834 13.6386 35.7655Z" fill="white"/>
<path d="M9.83105 57.7184C13.8613 64.6989 22.7872 67.0906 29.7678 63.0604C25.7375 56.0799 16.8116 53.6882 9.83105 57.7184ZM13.1117 58.5974C17.8695 56.9666 23.1818 58.3901 26.4869 62.1813C21.729 63.812 16.4167 62.3887 13.1117 58.5974Z" fill="white"/>
<path d="M23.0381 77.2877C30.0186 81.3179 38.9446 78.9262 42.9748 71.9457C35.9943 67.9155 27.0683 70.3072 23.0381 77.2877ZM26.3187 76.4087C29.6237 72.6174 34.936 71.1941 39.6939 72.8248C36.3888 76.616 31.0766 78.0395 26.3187 76.4087Z" fill="white"/>
<path d="M39.042 85.2012C46.8278 87.2874 54.8306 82.6669 56.9167 74.8812C49.131 72.795 41.1282 77.4154 39.042 85.2012ZM41.9833 83.503C44.1945 78.9855 48.9574 76.2357 53.9752 76.5795C51.764 81.0969 47.0012 83.8468 41.9833 83.503Z" fill="white"/>
<path d="M51.9649 19.4736C51.4689 19.2428 50.8774 19.3572 50.5035 19.7621C48.3449 22.0991 47.0593 24.3684 46.4296 26.5465C45.9769 26.4394 45.482 26.587 45.1648 26.9693C41.8059 31.0179 37.2803 41.1027 44.162 51.2909C44.2953 51.4882 44.4747 51.6356 44.676 51.7291C44.4529 52.1382 44.2506 52.5651 44.0755 53.0084C42.9274 55.9156 42.9876 59.4512 45.7698 63.0528C50.9318 69.7354 57.8993 73.5209 60.8303 74.6093C61.1886 74.7423 61.588 74.706 61.9165 74.5106C62.245 74.3152 62.4674 73.9817 62.5215 73.6034C63.3835 67.5791 65.1073 65.1579 66.5039 64.3071C67.8148 63.5085 69.2398 63.8791 70.2454 64.611C71.6294 65.6235 72.9767 66.1425 74.2709 66.2083C75.5751 66.2745 76.7091 65.8742 77.6421 65.2491C79.2948 64.1417 80.3575 62.3107 80.9029 60.8756C83.0436 59.2552 83.9693 57.3744 84.2157 56.1041C84.9786 55.3925 85.5013 54.6305 85.7843 53.8249C86.1166 52.8783 86.0862 51.9625 85.8446 51.1485C85.3864 49.6053 84.1844 48.4477 83.2672 47.8307C82.1582 46.9968 79.4217 44.3311 77.7781 40.6128C76.6834 38.1363 76.0377 36.8204 75.5369 36.0146C74.9859 35.128 74.5698 34.8103 74.166 34.4288C73.8785 34.1571 73.2772 33.7665 72.6622 33.3837C71.9922 32.9666 71.1447 32.4626 70.2438 31.9377C68.4402 30.8868 66.393 29.7353 65.0577 28.9953L65.016 28.9732C65.002 28.9662 64.9879 28.9593 64.9737 28.9528C64.9344 28.9347 64.8951 28.9168 64.8562 28.8993C65.9823 26.5657 65.6772 23.7284 64.9577 21.3526C64.1962 18.8385 62.8664 16.4905 61.6652 15.1985L61.617 15.1493C61.3702 14.9112 61.0363 14.7829 60.6917 14.7959C60.3241 14.8099 59.9807 14.9833 59.7513 15.2708L54.8428 21.4242C53.8941 20.606 52.9094 19.9606 52.0127 19.4968L51.9649 19.4736ZM60.6327 30.5876C60.7144 30.5611 60.8312 30.5343 60.9931 30.5201C61.5147 30.4743 62.442 30.5765 63.8751 31.2301C65.2007 31.965 67.2069 33.0938 68.9711 34.1217C69.8636 34.6417 70.6868 35.1319 71.3264 35.53C71.6467 35.7294 71.9131 35.9007 72.1155 36.0383C72.2167 36.1071 72.2958 36.1634 72.3545 36.2074C72.4186 36.2555 72.4371 36.2731 72.4296 36.2659C72.8978 36.7084 73.0457 36.7954 73.3898 37.3491C73.7842 37.9836 74.3648 39.1439 75.4659 41.6348C77.3255 45.8419 80.3962 48.8439 81.7765 49.8727C81.7953 49.8867 81.8145 49.9002 81.834 49.9131C82.4833 50.3432 83.1886 51.0847 83.4212 51.868C83.528 52.2277 83.5369 52.5952 83.3991 52.9874C83.3982 52.9901 83.3971 52.9927 83.3962 52.9953C82.9315 52.2571 82.1691 51.4393 81.0081 51.18C80.3268 51.0278 79.651 51.4568 79.4988 52.1381C79.3467 52.8194 79.7757 53.4952 80.457 53.6474C80.7118 53.7043 81.0029 53.9202 81.2852 54.3873C81.5228 54.7806 81.6748 55.2278 81.7478 55.5462C81.6762 56.0264 81.2184 57.4233 79.4864 58.7759C78.4664 58.6899 77.0879 58.6804 75.8224 58.6687C74.2334 58.6541 72.8214 58.6354 72.0616 58.5186C71.3717 58.4125 70.7264 58.8859 70.6203 59.5759C70.5143 60.2658 70.9877 60.9111 71.6776 61.0172C72.6632 61.1687 74.3044 61.1829 75.7991 61.1967C76.561 61.2037 77.2932 61.2105 77.9411 61.2282C77.5006 61.9793 76.9219 62.6886 76.2349 63.149C75.6839 63.5181 75.0801 63.7181 74.3993 63.6836C73.7094 63.6485 72.8249 63.3662 71.7358 62.5689L71.7331 62.5669C70.2294 61.4725 67.6715 60.6353 65.1885 62.1481C63.0078 63.4767 61.2544 66.4181 60.2847 71.6256C57.1892 70.1481 51.8594 66.8012 47.7702 61.5075C45.5614 58.648 45.5886 56.0597 46.4269 53.937C47.3015 51.7225 49.1017 49.938 50.4982 48.9943C50.5365 48.9685 50.5734 48.9405 50.6086 48.9107C51.4248 48.2178 52.5469 47.0143 53.2842 45.5977C53.8524 44.506 54.273 43.1143 53.9443 41.7097C54.0033 41.6798 54.0608 41.6452 54.1159 41.6052C56.0215 40.2243 59.8254 36.2091 60.6327 30.5876ZM67.5317 39.7306C66.6506 40.1499 65.932 40.7301 65.4858 41.1959L65.4003 41.2873L65.3406 41.3577C65.0574 41.7179 64.9902 42.2064 65.1711 42.6326C66.6426 46.0978 69.8274 46.7167 71.3357 46.5593C71.5657 46.5353 71.7831 46.4485 71.9656 46.3108C72 46.3189 72.0454 46.3314 72.1022 46.352C72.417 46.4662 72.7781 46.7027 73.0044 46.8916C73.3238 47.1583 73.7541 47.2507 74.1549 47.1387C74.5556 47.0266 74.8757 46.7244 75.0105 46.3307C75.3795 45.2527 74.8324 44.2621 74.4562 43.7296C74.1026 43.2292 73.6622 42.7962 73.3009 42.4946L71.8151 39.9128C71.6479 39.6222 71.3721 39.4101 71.0484 39.3229C69.7205 38.9651 68.4746 39.2819 67.5317 39.7306ZM67.9215 42.4258C68.1266 42.2797 68.3621 42.1351 68.6181 42.0133C69.0614 41.8024 69.5039 41.6877 69.9258 41.6981L71.176 43.8705C71.0368 43.9141 70.8984 43.9741 70.7629 44.0531C70.0243 44.0257 68.7775 43.6834 67.9215 42.4258ZM45.9547 30.1943C45.9892 31.4935 46.236 32.713 46.6078 33.84C47.2404 35.7572 48.2352 37.4116 49.1511 38.7504C49.6081 39.4184 50.0586 40.0261 50.4305 40.5367C50.8164 41.0663 51.1 41.4679 51.2827 41.7854C51.6793 42.4744 51.5988 43.3603 51.0418 44.4305C50.5061 45.4599 49.6506 46.3976 49.0161 46.9456C48.103 47.572 47.0481 48.4874 46.0988 49.6382C41.0568 41.9504 43.3447 34.3574 45.9547 30.1943ZM51.6979 22.2291C53.5682 23.4108 55.5678 25.3948 56.3918 27.9825C57.2851 30.7877 56.8949 34.6252 52.7301 39.4022C52.6459 39.2848 52.5602 39.1664 52.4739 39.048C52.0867 38.5165 51.6673 37.951 51.2375 37.3229C50.3801 36.0696 49.534 34.6403 49.0085 33.0478C48.4875 31.4687 48.2835 29.735 48.7042 27.8479C49.0802 26.1612 49.9718 24.2806 51.6979 22.2291ZM60.7169 18.114C61.3893 19.1574 62.0776 20.5646 62.5382 22.0852C63.2218 24.3422 63.3014 26.5038 62.4785 27.9969C62.4595 28.0314 62.4425 28.0665 62.427 28.1019C61.8141 27.9866 61.2636 27.9585 60.7722 28.0016C60.1438 28.0567 59.5789 28.2355 59.1294 28.518C59.0458 28.0735 58.9355 27.6391 58.8006 27.2154C58.3185 25.7017 57.5389 24.3759 56.6207 23.2476C56.6286 23.2382 56.6367 23.2291 56.6444 23.2194L60.7169 18.114Z" fill="white"/>
<path d="M72.195 45.334L71.6637 42.1608L70.5103 40.8393L67.0171 42.9388L72.195 45.334Z" fill="white"/>
</svg>
