<svg width="350" height="214" viewBox="0 0 350 214" fill="none" xmlns="http://www.w3.org/2000/svg">
<path d="M101.335 214L63.963 183.017C71.4053 183.017 87.4475 183.739 96.7394 186.502C81.6982 164.106 45.0562 118.383 0 87.9057C19.4045 95.3513 61.0883 113.413 72.5873 126.094L27.3101 43.9529C41.9233 56.4422 73.5934 85.8882 83.3676 103.758V87.9057C93.1896 103.517 113.84 135.749 117.864 139.785L106.366 78.5387C110.678 84.5432 119.877 97.2727 122.177 100.155C124.476 103.037 101.574 34.5859 89.8357 0C102.533 19.2144 132.813 70.1805 152.361 120.33C155.715 107.12 168.604 70.1805 193.326 28.101C182.786 67.0101 163.142 151.457 168.891 177.973C174.88 139.304 192.608 55.7697 215.606 30.9832C224.709 21.8563 245.216 13.2579 254.415 51.8788C250.582 45.1538 240.185 34.1535 229.261 43.9529C222.793 55.0011 206.55 94.6788 193.326 165.003L206.263 132.579C207.221 134.741 208.563 142.955 206.263 158.519C222.793 125.374 274.682 58.3636 350 55.4815C312.149 84.7834 234.004 148.863 224.23 170.768L251.54 158.519C248.665 168.126 240.185 189.358 229.261 197.428H242.916C239.322 201.03 232.423 209.389 233.573 214H101.335Z" fill="#767D4E"/>
</svg>
