<svg width="483" height="329" viewBox="0 0 483 329" fill="none" xmlns="http://www.w3.org/2000/svg">
<path d="M16.2555 67.0327C16.4239 65.5207 20.1132 62.9027 21.9368 61.7827C23.2835 60.8903 22.4979 59.7308 21.9368 59.2625C19.2434 57.2464 20.8146 53.8025 21.9368 52.3325L34.3515 32.5925C28.1232 -18.3117 89.2706 1.58237 120.623 17.8924C190.65 35.5325 228.357 67.6627 238.457 81.5228C264.212 85.0508 314.137 80.8927 335.88 78.3727C390.757 68.1247 430.849 89.5028 444.035 101.473C471.978 127.009 470.828 174.133 466.76 194.503C465.245 201.223 461.079 228.803 459.185 241.754C459.69 243.434 465.708 248.334 468.654 250.574C473.872 253.094 473.634 262.824 472.862 267.374L469.285 292.364C483.089 293.204 483.874 306.294 482.541 312.734C481.279 315.674 481.068 318.614 481.489 319.874C480.437 318.194 477.702 317.564 476.65 317.564C470.758 316.388 466.199 310.214 464.656 307.274C463.646 308.618 463.674 314.274 463.814 316.934C462.804 324.662 455.538 326.874 452.031 327.014H433.514C423.582 327.518 420.959 321.904 420.889 319.034C421.394 310.13 428.955 307.484 432.672 307.274C435.702 308.45 438.003 305.104 438.775 303.284L443.614 283.964C443.951 278.084 439.266 268.774 436.881 264.854C433.682 260.99 423.765 250.504 419.206 245.744C422.236 253.472 426.921 257.224 428.885 258.134C435.113 263.51 431.48 269.474 428.885 271.784L419.206 291.314C417.943 295.024 414.787 302.612 412.262 303.284C409.106 304.124 402.793 313.574 401.741 313.574C399.721 318.614 394.447 320.994 392.062 321.554H371.862C361.425 322.898 357.413 316.794 356.712 313.574C358.227 302.654 373.335 302.864 380.699 304.334L392.062 288.584C397.785 278.504 389.677 261.144 384.908 253.724C376.491 245.156 357.413 211.933 348.926 196.393C334.113 207.481 314.698 209.833 306.843 209.623C304.486 209.623 298.847 210.743 296.322 211.303C286.993 214.453 266.779 220.753 260.551 220.753C254.322 220.753 236.773 215.573 228.778 212.983C216.152 211.135 197.145 212.213 189.219 212.983L180.802 236.294L174.069 261.914C172.877 266.884 170.66 278.42 171.333 284.804C172.007 291.188 168.247 300.624 166.283 304.544C165.442 305.454 163.758 308.954 163.758 315.674C163.758 322.394 162.917 324.634 162.496 324.914C159.298 328.274 144.751 328.694 137.877 328.484C134.51 329.66 129.18 328.554 126.935 327.854C120.707 329.03 117.887 323.584 117.256 320.714C115.923 321.204 113.09 320.546 112.417 313.994C111.743 307.442 124.48 304.964 130.933 304.544C131.27 301.352 134.861 296.214 136.615 294.044C135.1 287.828 136.404 264.574 137.246 253.724C139.771 242.636 135.633 229.363 133.248 224.113C105.473 230.665 94.7414 200.663 92.8477 184.843C85.6093 171.403 77.6274 162.303 74.5413 159.433C51.3112 154.393 33.8605 132.553 28.039 122.263C11.5422 126.463 9.10139 115.053 9.94306 108.823C4.89307 108.151 3.63055 99.0228 3.63053 94.5428C1.94719 93.0728 3.42011 87.1928 2.78886 86.7728C2.28385 86.4368 0.754786 84.5328 0.0533763 83.6228C-0.619961 78.7507 5.24368 74.3127 8.25967 72.7027C10.8548 71.4427 16.0872 68.5447 16.2555 67.0327Z" fill="#C8C39F"/>
</svg>
