<svg width="30" height="30" viewBox="0 0 30 30" fill="none" xmlns="http://www.w3.org/2000/svg">
<path d="M17.4146 15.3646C17.4055 15.8397 17.2556 16.3015 16.9838 16.6914C16.712 17.0812 16.3305 17.3816 15.8878 17.5545C15.4451 17.7273 14.9611 17.7648 14.497 17.6622C14.0329 17.5596 13.6098 17.3216 13.2812 16.9782C12.9526 16.6349 12.7333 16.2017 12.6512 15.7336C12.5691 15.2655 12.6278 14.7835 12.8198 14.3488C13.0119 13.9141 13.3288 13.5462 13.7302 13.2918C14.1316 13.0373 14.5995 12.9078 15.0746 12.9196C15.706 12.943 16.3034 13.2113 16.7402 13.6677C17.177 14.1242 17.4189 14.7328 17.4146 15.3646Z" fill="#FFF9ED"/>
<path d="M19.1442 7.84963H11.0068C10.2016 7.84963 9.42941 8.16949 8.86006 8.73885C8.29071 9.3082 7.97085 10.0804 7.97085 10.8856V19.206C7.97085 19.6047 8.04937 19.9995 8.20195 20.3678C8.35452 20.7361 8.57815 21.0708 8.86006 21.3527C9.14198 21.6347 9.47666 21.8583 9.845 22.0109C10.2133 22.1634 10.6081 22.242 11.0068 22.242H19.1442C19.5429 22.242 19.9377 22.1634 20.306 22.0109C20.6744 21.8583 21.009 21.6347 21.291 21.3527C21.5729 21.0708 21.7965 20.7361 21.9491 20.3678C22.1016 19.9995 22.1802 19.6047 22.1802 19.206V10.9006C22.1817 10.5008 22.1044 10.1045 21.9526 9.73464C21.8008 9.36475 21.5774 9.02845 21.2954 8.74503C21.0134 8.4616 20.6782 8.23661 20.309 8.08297C19.9399 7.92932 19.544 7.85002 19.1442 7.84963ZM15.0748 19.434C14.2692 19.4522 13.4765 19.2299 12.7978 18.7956C12.1192 18.3613 11.5853 17.7346 11.2643 16.9956C10.9434 16.2565 10.8499 15.4386 10.9959 14.6461C11.1418 13.8537 11.5206 13.1228 12.0838 12.5465C12.647 11.9703 13.3691 11.575 14.158 11.411C14.9469 11.247 15.7668 11.3218 16.513 11.6258C17.2592 11.9298 17.8979 12.4492 18.3475 13.1178C18.7972 13.7864 19.0375 14.5738 19.0377 15.3795C19.0442 15.9061 18.9469 16.4288 18.7512 16.9177C18.5554 17.4066 18.2652 17.8521 17.8971 18.2287C17.529 18.6053 17.0903 18.9056 16.606 19.1124C16.1217 19.3192 15.6013 19.4285 15.0748 19.434ZM19.4787 11.3266C19.3797 11.3266 19.2817 11.3069 19.1905 11.2686C19.0992 11.2302 19.0165 11.1741 18.9472 11.1034C18.878 11.0327 18.8235 10.9489 18.787 10.8569C18.7505 10.7649 18.7327 10.6666 18.7347 10.5676C18.7347 10.3663 18.8147 10.1733 18.957 10.0309C19.0994 9.88857 19.2924 9.80861 19.4937 9.80861C19.695 9.80861 19.8881 9.88857 20.0304 10.0309C20.1727 10.1733 20.2527 10.3663 20.2527 10.5676C20.2557 10.6748 20.2355 10.7813 20.1934 10.8799C20.1514 10.9785 20.0886 11.0669 20.0093 11.139C19.9299 11.211 19.8359 11.2651 19.7337 11.2975C19.6316 11.3299 19.5236 11.3398 19.4172 11.3266H19.4787Z" fill="#FFF9ED"/>
<path d="M15.075 0.000187758C11.0968 -0.0197032 7.27364 1.54155 4.44656 4.3405C1.61949 7.13944 0.0200787 10.9468 0.000187758 14.925C-0.0197032 18.9032 1.54155 22.7264 4.3405 25.5534C7.13944 28.3805 10.9468 29.9799 14.925 29.9998C16.8948 30.0097 18.8473 29.6314 20.6709 28.8867C22.4945 28.142 24.1536 27.0454 25.5534 25.6595C26.9533 24.2736 28.0664 22.6256 28.8293 20.8095C29.5922 18.9934 29.99 17.0448 29.9998 15.075C30.0097 13.1052 29.6314 11.1527 28.8867 9.32911C28.142 7.50548 27.0454 5.84639 25.6595 4.44656C24.2736 3.04674 22.6256 1.93359 20.8095 1.17068C18.9934 0.407771 17.0448 0.0100368 15.075 0.000187758ZM24.1844 19.0529C24.1886 19.7259 24.0591 20.393 23.8036 21.0155C23.548 21.6381 23.1714 22.2037 22.6957 22.6796C22.2199 23.1555 21.6544 23.5323 21.0319 23.788C20.4094 24.0437 19.7424 24.1734 19.0694 24.1694H11.0835C10.4106 24.1736 9.74353 24.0441 9.12099 23.7886C8.49844 23.533 7.93281 23.1564 7.45689 22.6807C6.98097 22.2049 6.60423 21.6394 6.3485 21.0169C6.09276 20.3944 5.96313 19.7274 5.96711 19.0544V11.067C5.96293 10.3941 6.09237 9.72703 6.34792 9.10449C6.60347 8.48194 6.98005 7.91632 7.45583 7.4404C7.93161 6.96448 8.49713 6.58773 9.1196 6.332C9.74207 6.07626 10.4091 5.94663 11.082 5.95061H19.0694C19.7423 5.94663 20.4092 6.07622 21.0315 6.33186C21.6539 6.5875 22.2194 6.96411 22.6951 7.43987C23.1709 7.91563 23.5475 8.48108 23.8031 9.10345C24.0588 9.72582 24.1884 10.3927 24.1844 11.0655V19.0529Z" fill="#FFF9ED"/>
</svg>
